<mxfile host="Electron" agent="Mozilla/5.0 (Windows NT 10.0; Win64; x64) AppleWebKit/537.36 (KHTML, like Gecko) draw.io/25.0.2 Chrome/128.0.6613.186 Electron/32.2.5 Safari/537.36" border="50" scale="3" compressed="false" locked="false" version="25.0.2">
  <diagram name="Blank" id="YmL12bMKpDGza6XwsDPr">
    <mxGraphModel dx="2280" dy="466" grid="0" gridSize="10" guides="1" tooltips="1" connect="1" arrows="1" fold="1" page="0" pageScale="1" pageWidth="827" pageHeight="1169" background="none" math="1" shadow="0">
      <root>
        <mxCell id="X5NqExCQtvZxIxQ7pmgY-0" />
        <mxCell id="1" parent="X5NqExCQtvZxIxQ7pmgY-0" />
        <mxCell id="AUIWZhhDlwIIDF9ezmAe-1" value="" style="shape=image;verticalLabelPosition=bottom;labelBackgroundColor=default;verticalAlign=top;aspect=fixed;imageAspect=0;image=data:image/png,iVBORw0KGgoAAAANSUhEUgAABQAAAAIBCAYAAAAWHxLcAAAAAXNSR0IArs4c6QAAAARnQU1BAACxjwv8YQUAAAAJcEhZcwAAEnQAABJ0Ad5mH3gAAOQdSURBVHhe7P17fFTlvff/v6i2ug1MIiLGA01C0iIIaApIQUQxZkt+oN4RKBXLVlsOxlt6sJuaGvDBQw471mrbjbcpgW5brVg2hNwofKN3iHigUE6NIIK2E5IUkRgRk4G4sYr8/lhrZtZcs2YyExKSDO/n4zEPzbou1lqz1po1M5/5fK6rR1pa2ilEREREREREREQkIX3FXCAiIiIiIiIiIiKJQwFAERERERERERGRBKYAoIiIiIiIiIiISAJTAFBERERERERERCSBKQAoIiIiIiIiIiKSwBQAFBERERERERERSWAKAIqIiIiIiIiIiCQwBQBFREREREREREQSmAKAIiIiIiIiIiIiCUwBQBERERERERERkQSmAKCIiIiIiIiIiEgCUwBQREREREREREQkgSkAKCIiIiIiIiIiksAUABQREREREREREUlgCgCKiIiIiIiIiIgkMAUARUREREREREREEpgCgCIiIiIiIiIiIglMAUAREREREREREZEEpgCgiIiIiIiIiIhIAlMAUEREREREREREJIEpACgiIiIiIiIiIpLAFAAUERERERERERFJYAoAioiIiIiIiIiIJDAFAEVERERERERERBKYAoAiIiIiIiIiIiIJTAFAERERERERERGRBKYAoIiIiIiIiIiISAJTAFBERERERERERCSBKQAoIiIiIiIiIiKSwDo5ADiDvLW1zK+qZXqB2SatmbngI+pWtTAzZGk/nnjwTsofHMM9wNhxEyh/8E7KJ/UL6eXmnkl3Uj7jKsaaDW0xZAzlD05gXqrZEKPUq/ij43mcHg/zZtxJ+YN38sQQs01aZx+/GK6hM2LIGOuabvVaDZ53/+OP4zxmpy7nnkmh+3z2XLNu11nb72ftYwYl+RVU5ldQee0Ms7Hz5T7PnLPh/bOgkvlVu8nLNRs6R3ap9bllzqIYr4kudp66+/6fSTdducZ6/eevYXEvszXosafrqXv6M3OxiIiISJfSyQFA8ctZ9AhVVQ9wn9kQyexmir79Kd5Xk1hutjm8caQZgJaj1n8j68eQNDiw7R3eMJskwApAtEdQMnbtGphti9R+XOnxsevPB82WLszDvBkTGOY5yLonXyDffnxvk8/s2OX8vsze35V7aDEbE1kM11ns97P2MI7FN08i61AZueV55G5fYXYQkQT36ruTyS3P4z/2w7U3Rw4CPlTWB1//BvYsOGk2iYiIiHQZnRwAXEHFHRkszMnguRKzTSLKaWFPfhO+v1zBzcvMxmY+8QG+TzhgNkUxdtxQ+nOQt982WzpJwzt878kXyH9yM7832+LmY9EKK6jy067y/LqRe64bSpKvjjcazJZO8vZmK0C2IkqwOrUfV3qgpXrPaVw/4RmEgUdnBmQTlPt11rb7WbvoNY5BvVrYvl+BPwlVPcv63LJ0Xve8Ntpz/1MX7WZ+VS3zqyrJNhsTyKvvvoyXJHpHCABSlcTQ8hQ8336fjbPNRhEREZGuoZMDgNIWj006gqe5D0sXnGM2hfvoE1qAD49Ey3zyMDbTA/X1pxEskcRkZYa21ByMHGzrwqJf9zHy7eFXjizCVoOP0gYxXmcx3c/aSa/e9DSXiYjDDLIHeWjauoU6shh8FpQIp3rGmYuCliWz6gBk5TfzmNkmIiIi0gX0SEtLO2UujCj3eeYUjiYlsMDHzuKrqai0/kpdtJuZozxQs4qFswoDvcKXzyBvbRHDk93XEyJsm17W5+RSHdLJsQ0/Yx9idV/p40zhZXJWX8K6wuzAF0DvmrnMNrIU7yt9nCmZwb+Pb13G7fO8zi5ADsuqxpMV+PsY24of5eFKtzZTPatznuK3zkU5LeyZe4TG8jSX7L82GjKG8txkdq3cwCIzyyv1Kv44bShJgQW+GPvh6GuVY15Zs4GNvSdwexq0VG/ge0eGUp7bL3Sd5np8e/hVWLClH088OAYqX2Bdnwn8JNt/3g+yLiRj0F8G6v87wr7jst2QdVnb6+/oHsrR13Es37/uTm5Pc+njN2SM/fz9HH3C9scQdlzMfTSfq30sPtlM/p89Ietuqd4QsTR27LgJ/CS7OXTf7f0+UBmeUXnPpDu5Pc14rubzrN9MfpmjzDPWY9baepzs4/ehyz761+P2vEP33z5mmMfaKfZr+55Jd3I74cff7ThCK88BWj3n1rnzuKzf/Xn5+/u5HZ9YX1PmuqKeq0jXWWe77CkqR6ayfeNkio6ZjXEqqGT+ZMed3uX9Kbb3sGKmV00l3Vhat8bMojf7ub9v4thu+DriZz6Hpq2Lw7LMsktrmeh433TrE/6+j/vnhBiOa3sy9z3yMTOPv8Xsbx6vaPtvbdvlGMShvfffOk+D8RZfTcOUWiZi7r+1npSti1l6aGrIuQpZV0El8yf3Zad/PYF9DL9uzecQeszs/W7ewvI77iLktmRfK2HPIWYzKMmfROr+X5D/7iazMcj+jMZfrmBoLD/SioiIiJxBcWQAFjO9AFbnWKUjC3MyWF/jYXhhcGDuhnlXs74GyMwLDtad+zxTwoKCwdLfhWvMgFlQ6qLdzC8cTdMa5zazmGgMBm59iIadxcF+yxvz2j5gdeZ4qgqzeKd4Ljk5c1my9RhZkx9hSWCbOSyrepwpfapZkmP1ySmuhlGzqSrNcazIDvDVvGz1yZlLTs6fuahgGlavKmbby5dsPWYH/Pz95pJjBv+Amdd/iocUdrVX8A+455v9IKz0DivAMBFKHZlP6+o9DJtmTO4xZAzldqAikCFV6fJlP/N6bj66gV9V+0jKvJ4/5sK6JzdzAA9XDrS/BAVKf19gXb25glD9c+/kJ7332NvcwC5fP24PKc0Mlv667o+fHWihekNw/1d+ws2BiQYO8lN7+a+qfXZgypkRZgYtPAybZgd7Iu1b6lX88Zv1jnXYffzjC5rHwcxCcwakhoyh/MExXOLY/19Vw7BpLhNIpI2hfFo6764MHpek7Anh/SByZujb9RwA+n/TnIjBzuJylN2OHTfBDu4Fj9WBtDEukzjEcMz8pb9PbmCXGZcCx4QRd1JuB9j65zpLd+1j+/YedvkgKbOfUcZr7X/Y841FLNc24cf/V9U++ue2YbKcGM75G5v2uJ8nf3m0I9vunkl32gE4+zyt3APZE4xJU/rxxIN2EDlkm6H7bwXzcJzzF/jV0aERrjEiX2cJIru0NhB48L8/Lawe5nh/sibDmjmqkfWB99dV1GVOZf7a5wkc2tznmWMHUwLrKd5CU2BLkftZ75tuJZpWBhdAenax2RgH/3MIfR9ezVTHe3Ux06tqmdhnC8sd+8+oIuaXOrZdUBn2vu/2OSF10W47aGQcM+e62pm/dNb1uPu5HH+3/vF9bilmcCaAh6wbYpy4w0V77j9A6g2DSWneS3UlVFd7IXOYyzUGKaOKmD+ZwPW9fKuP9MnmpC4ehhfaQcScDBbmLGZncxYTHa+B1EW7GVztuC6Kt9AUcs4Lqdzqg+TBZBsTxmRnZwFe9rYp+BeHqvPZ2wyegSeMCdpEREREOl8cAcBCnjN+Ua1evYUm4wNp9azF7Gz2MLzgeVKZQV7BaFKat7A8wq/akRWTO8pD09bFIb/WVs9aRR0ehk8Jfsi/tK8H7A+hfg3zrm7jr7wYWXpQNe/PeOnFVTdYv17nLLqOLOpZfcdKqvz/pHIl/7n1GGReFwwU5l5CKuCtDvSygn7OfxeXk4wb+CkcOJ+HzKY2izb5x0F+amQ+/f7Pe2gJCWp4mDeyH9RvjpClFJTkaWajP6PI4+HDymDgLKl3IB00dr49/CqQVeTjjRofeC6MkqkXwcUXkoSPd/c7okoN7/C9KBlLrWmp3uDIeHLZt7D1+1i07aB1PiIGStwEj78zW+uNTW+yywf9R5pj1R1k3ZOOjC07mHdJH5fZcSNOynCQt+uBtLTQyVCGpNE/5Dj24/ZsDy3VbzoyxA7y08qDkDY0LOjV6jFrVTBQ659A44AzKB0I1PrXnc7YkEC2tf/hz7d1sV/boRlzVpDOCBK2KtZz7n6exg5MJ4mDwf1NvYqb0+CAY59peIfSah9J2UMD/9Y/Tug6x3VrbdPDsOuCQcb+vT1hPyi8sWlD5PtDxOssAeQ+z5hMl8ypklxH9tNUhif72FnszHQq5Lk1XkgeTa4dEMqeYr2Xrjaz5Qxu/az3zSzGhM36uoLqfdZ1UFcd73u0Q+A5hGanNczLdVQI5JGOl/XOzxGVd7F6q8/xo+EM8nKzoGZVK+/f/s8HSx3bs4+Z8wfITuB2/N3E97mlkL01AD68r0df7+mKdf8D5b/7Nlnns2RX5DLg5i0sd2TyNby+lyY89DHKH5q2Lg75obh6nw+S+3KpvSTs+FTexeYaQgKP/nWHBkqtAGrT1lWuWbCxqeFoTJnA57Bp/wWQ/EWU6g4RERGRzhFHANBF5UGXX4VXUFGyhabk0cysKrK+FJQYpRixKBhGOtB0yPwQan8Q7tMv8Kvw4UYfJI9mpjNb4nQ0e6kKKbGp5+Nm6Nk3DcgiZ1AvaD7K351dgKrXvRynFxf5P/VVfkgDkDX5cZa5fSiO2xf0TQZf47lmQ5vFPflHg48PnX/b2UQH/hbDl/eQDB8fn3wU0hq3VscLi9VHn9CCS2bjaTDHKHtj0waXTEGDPb5ZXPzZXGGzokYIoIVNpmAFzcJLPSNNymCxAsGhwcqwTNKwgKDNPt4XXhy6uE3HrI3e2F9nBLJd9t/PM5SfmJOAmBmMsV7bYeu3JrmIKwAexzn//d/MoHJ4tp0/IGjeA6wZd5O5ItX931l8vP8JcKEnEGg+cNRnHbMYJ0qJdp11ptlXZMKxfVTF9KXfXeoNg0lpJevIykxqpMEs6yzZRR2QcvmMYADDH2yJKFI/L0eaIaVveEiiYd7VLDzNibiys7PCglmh7EzD5kYOGy0hwaDccWQlxxCMLBhGulswzNvoGlg6cyId/3Dxfm6xsvfaXv4bm9j33zpXznNgXWOumaRHDoaur/Iulrpcc+bnPevadC9d9zvcaLy/VG7C2wwpg8YFj2uk6yUum/iHD3oOnERrc3wsP/w14J/0cxaEiIiIiHQBcQUAg7O9+R/hY8SA41d9MH6hj5ePI+GVPxbjV+GFdrbETP++dWAZEABHPoyYxZd6uf/bRxWzc5axrdkKAlZVPU5VlbOUuLNZX+qjzZQ6dtwEYwbUaGPhdVMN7/A9u1xz2DSjXLQD3TPJCCpFG/OvFWbwLMgfwIlXtMxQoOEg7/qc5aXh/cf2SQ6U9rbX82w3De+wsd5ZBhy+/wFm+fWTL0Qdz+5Miemc2+XOgfPkkm3Xv7fHytY0g5wh41Mmc6HHLmE2+gXHbLS8sWmDVXLvDJyaAdOAKMe9k8y+toLK/AqueT+P3I2P8KrZIQ5Wlld40CtMlD5uQbuIcvuR4i+5DHmvdo65295mkNrHJcjjJkofK9AZm9TL+wZKRkOeZ9i4gV1Xp3xuaUdWcNsZuLYz9jo0A9MqI3ee85AxFMH6EbrSG1IGnJ2dBTUVp/FZ1LJsex65G48yPr+CyvynWg0EioiIiHQ1MQcAnQOFB8ZfyVlFndkRawyfmaM81NV4SRlVFGFMm9NkfmEqyQ3slzUOYceOBRRNwyFn1NLLw3cExwk8Ti9GFnaRIOCQoQzzuGRo2ZyTCDjLKEMzyBKFo3y00sqaCozH1wGsySZ8IeOk+ctW21cz70f6xh1F65mhdraZv7x0SFpYfyuDzHiOjkfEktAz5Pd/OxgsA3bZ/+7Lec5Dz9PYgelh2XYHjvpcxrX0P/zlylamIvXB8f9CHuYkKYHxGu0xLF3HfYzlOjvzlm3PI7c8j7euqKDy5ke5yewQByvLK/hjVVs0NUb6FcyFnZXf5By/zfmIeyiOWKyg4UhoVn5bmNlf0TQcagR8IePnOR9mZlmX1YU+t8THP3ZkFhPDgnFm+W17cUzw4TjXy+0fm0OU7KIusB9WVmOrWaUxmH1tBZUjYWl5HrnlD9COQzGLiIiInBExBgD95TtbqGz1g3Ux0yfbY/jMWsXOZkif7Db4eCtCPsA5tV6iUj3L/jDt9oXkhiKeLSujrOyX3G22RZJ7LVcl+8fy81K17xhkDuQ+o1vODVn0pJ7qSMeociW320HAQJmwrerQUaA3X48aGDyXxmbw9P3CbGiTiCWPECz58+1hXbQv53ZJcOgYcvYYZd3V25vtIGB49lxoWWRb+Seb2BM2e6obq6Qywlh4YZl4fpFKNmMR27+1xq+zykvv+Wa/8P4RSn27jLf3sMtnlQG77v+ZEE8JvV+c5zx4nuyMX6N0PrZrOrzUN1a/L7ODgGH/1n1/T8fdT5RRVlbGs4XXm01xW/Z+DfQaRE4vsyV2VqAqwrhoturq0GylgJCyRfcS3uwpZsabe79o/Jn9p/NDnRXodHkOAf7ssPBJIkLKpO0AZmg2oD0uoFPcpb7XU/SMdW388l6zrT25H//w8xQu6ucW/2QyxgRo7S/G/feXaof8IJxhT9xhlN+2F3tYmLrKWIaUsSYDSRk0jtSCYaS3UoYfmxlcczkcf39Tq1nBMy/9J/A1DkYqExERERHpJDEGAO1f+J0f8O2Z4kJLgGeQt3aqNdD3rMLgeIBkMTHuX7XtD3Cj5oR84M0utda/OTBA9Qzy1poBRnvGPJdyo+tHDbDLDzMYEtMXgSyWFGTTs7ma/7Y/QFqTgqQxxTnjb+40fjiqF8e3vhycubfgAdYtCv0gbQUJj/GxmdThPWplB06JNmiMPbh0/xM8ZjbFyz/wf8TSO/sLv3OihNSr+GNYCbA10YBzsoB7Jk1gGL4OyGbrGGPHhc+Ce883+7lnz/nHC3RMehA/O5vKOTmDPZOyW2msFaDpx80hM7L62ZOHpI0JeQ5jx13PsLZOrGBnhrb+b61z3/+bYxiS5tLfLrNt0yy3Z4SVHZeUPcHKxjT3v8N5mDdxKEmtBdnDxHvO7fOUO4FhHsfkH352IHTYtOgZr7//8x5aPEP5iUsmX5CHeTPM9dgB7098ofeamK+zWF3PFb2t/0sacXvsP/B0pBL/j2BG4KagMhhwK1nlmDjLz/9Dmr9sMby8MnXRbib28Rnj8Nrlj5lTmRM24Yeb9pkFuGFehTU5V2Hoe3HqosrA/lp9jM8Cuc8zZZTHMTmDNcZvyqipgfVklxYxHON52pM/hB3XiPpbJexAxtgiTj88HEms5ym+zy3tNQtw62Lb/8hjW/on7ogWDG4jbyNNxnWaXepWAmxpeH2vNRb15KzTnPwjXvZkbc3nYn7MExEREelsPdLS0k6ZC93NIG+tcxwhL+tzdjG4aiopWxezdN4KsktrmZhplR8tdcwg5y8fpmaVVYKU+zxzIo3V07yF5Y5ZAgP/NkK7xS4NcSwx9yHghiKe/eG3SKKWFyf9O38wmu8rfZwpmcbCmpfJmWX+lJvDsqrxIbO8edfMZbbxgThn0SM8PMqZQlLP6pyngkFCp4IHqJrsHFDLpW9OC3vmHqGxPI2bT6P+xCrvbWZd1EkWPMybMYFhgcN/kHVP1jPkwTFcUr3BMXFEaL+W6g18b38//jgtnXdXbmBRg93+yWbyyw7a28aeDbUfTzw4hv71zjb3D/QtgW1a/yZ0H1yeU+pV/DFCUA3fHn7lKFu0SnIjt4cYMsYYH+1gcJt224HK1kpc7eft/9O3h1+th1nThvKhy78NOy7m/kXbJwieI6I8L9s9k+7k9gtb7weO7Zr74xC27xj7H+MxCztHDmH/1j73bscyhP8acd1/8/p3CPSP/dp23X+7Lci4LkIY57TVc+7g7xu2vaDT2b/Q4x/eJ/jaDYrrOovVvb+kbGIGRLi/x+Wyp6gcmcr2jZMpOo2JQLADFROd7yv+98IA8/3V/T0sZD01q1g4C6ZXTQVzlmHX99jwWXoxhvc4vdLZWJ5D+Ht1+HZD19O0dTFLXx/HnMLBeI39D/t8QKTPCHB94bP8eEQS+P7Kr+9dzJtGe+vC9z3Iy3rHZBWxnafw9YUfryBrne7nMDbh2wuKZ//t83PEvIZt9rXH1sUsnZdlbTPsejcUVDJ/cpbLtWCw+/k1bV3MauYwc1RjyP5b/NfR6RwzpxmU5E8idf8vyH93k9kY1E6f0UREREQ6QhwBwLPDfaWPM6VPNUvuWBlxko/O9tjT9Uztn8Kq8ck8ZDbGxApaXFkT/qVcznZW8IbWAmeJwg4A4hKgam8dEvCKVYxB1jOno66zu/ll2W1ktDnI49COAUDpAvw//tW9yKSfnlZoWLoFOwCIe0A4frEFAB97up6pF/Vh8dQklpuNIiIiIp0sxhJg6UoeKuuDjyamPv2Z2RSbVib/kLNXV5yUoSONHZhOEi5lsQnGGu8z3lLjjtNR19ndT9xGBi389fenGfwDOHaU4+Yy6aaup+geO/Nfwb+zg3+cwpjGDGwns5uZ2h+8ryr4JyIiIl2TAoDdUVUSQ8tToH8DexacNFtb9/Zmx+yeIkFvbNpAfqQy0kQzZIw9y3ViP9+x4+wxDtd3QuZhBO1+nd37S8rKyrgtvZYXJ/0bi183O7TBsX/QQBLXDuzIMdeko11f+CxlZT/mW/yVX59uWbh0E8VMLxxNSs2q6CXFcbjpyvFk0cK+QxGy/3Ja2JPfhO8vV6j0V0RERLoslQAbukMJsN/MBR9RNPAClZqIxME5JuGZLIk90yXAwTH9fPaYhGYPaZ1V9pcFcKiM3O3u47OJSBfgHPuytXEHY3TTlWv4+UBrJGHvtjwKPjB7WB57up6ppJJ+/3lmk4iIiEiXoQCgiIiIiIiIiIhIAou7BLjHV//FXCQiCazHOV81F4mIiIiIiIhINxJ3APDU5/9jLhKRBHbq5OfmIhERERERERHpRuIOAIqIiIiIiIiIiEj3oQCgiIiIiIiIiIhIAlMAUEREREREREREJIF1TgAwdxrrqh5nWYHZcGbNXPARdatamGk2tMVlT1GZ/xSzzeUSt9nXVlB57QxzcTc0jsU3V1CZX0HlzY9yk9ksIiIiIiIiInIGdEwAsIsE+KKa3UzRtz/F+2oSy822ePV6lPKRmRzfX8Yys03itmz/Do5fPonyK8eZTd3K7Gt/xrXs4D/K88jd+Aivmh1ERERERERERM6AjgkAdnU5LezJb8L3lyu4+bQjdjMouXkEPQ+Vkf/uJrNR2uLYI+Rvq6HnwJ9RcpnZ2F3M4JrLwbtPgT8RERERERER6VxnZQDwsUlH8DT3YemCc8ymuN105XiyqGHN9hVmk5yODx5gzSHIGnkGyqove5Sr5leQ/i2z4TT0+jqp5jIRERERERERkU7QIy0t7ZS5sK3uK32cKZnm0iDvmrnMLrFLhAuzaVgzl+psx79prmbJHSupCvlXOSyrGk9W4O96Vuc8xW+NdtbM5b8vf4SHR/WK0M+W08KeuUdoLE9rn+y//Emk7v+Fa/bf0H+9g8wRN/D2xv9L2tUjSUm9AoAvPjvBX1b/jg8P7A/p+41vB0eJa2p4n6rS4sDffjmzCgPrATj8t7fZ8qfgE8mZVQhA/e5tDLn5f/GVc6wg59//8ip7/t/aQD+A0d+dzaXfHBL429zm6O/OJvmSK3hn00tk532Hc887H1y2CZA1clzI9tyeIy7bdFtXQK9HKb95BEQ4vu3Jc1cFA/vD8e2/4J1X2mFb9r43bMuj4AOzUURERERERETkzDknJSVlgbmwrXa+VMmzz1by7OGLmTTmUv6xZi5T5tjLnq1k/U67Y+YQ7hxzKamD/pWrPnmZnCnLePbZL7lu1vXkfLOWP7161OqXO411y6+n59Zl5N2zimefreSCMVOY8uMBXPDsdqzV9efWu7PIGvSvXP/PTfa6arnyf+Xwr1Mv5tCqt6kN7iIz724m94okKn9yPhsdy9vksu/z4yvO463dv+DVf5qNcEnmQPp8PZPUrEGcOO5jw5MP8/6+ai4fmM2lA4bw4YF3+eenxxn93dn0GzyCPZXl/Hnl0xw9WEv/YWO44qpvUbtrc2B9ObMK6XlhH7b8aRk7/u+z7H/9/yNzxI2ce975HD1UB0D/YWNISb2CvhkDeHvj/+XPK5/mwkv70W/wCL7452ccPVRHr4svJWfmQ3j6XBJYl3+b/YdfH9ivfoOH0/vyNC79xmD2vvoSf175NF8973zSrv42Xz3vfD6ssYJ7/uDfhzX7+H//ZyH7X///OPnF52SOGEvdW1tD9v/C1H6BbX5+4n/oP/x6el+exsG9uwL9Av4JQ6+4jgzP1zh0YFPIeWxvn739PEf+JZ+vXzuOK/r9C4fe/qvZJT7njeO7/S/n+KHn2XDMbBQREREREREROXM6twS45mVyZvnz/aqoroGeg64lx15y35RsejZX85/zvIF/8ttZL+MljbxFwZxAsLMHA+vyUrXvGCT35hshnU4ybuCncOB8HgpZ3jazr8iEY/uoaiXAc/hvbwcy6459dJjmD9/na+f/Cxf0SuGS/gO5OO0bfFizD+82K/PswwP7qa3egufiS8kaaU2E0eviS/navyRx/JMjIVl1rz3zRODf+X158iRvb/y/geU129/gyy8+p2/GNwHIyB7F+T09vPPahsC6/Nu8IPlCMrJHhayvZsfrwX3z7ueLz07Qs/fFgfYLki8EoLH2b4Fl3m2beO2ZJwJ/Z40ch+fiS6mt3hLYpnfbJj6s2cfFad/gkv4DA32DNlH1fgv0Ms9jbM67ZQ0j51dEeKzhEmN8wc9emcy2DTXQfxIj5zzKeaHNIiIiIiIiIiLdUqcGAL3VocW+oXLIzoTj+7YbJcH1fNwMPfumhSwN7+fmC/omg6/xXLOhDcbxdQ/g+0erkzwcP/pRyN9b/rSMdY/9Ox8e2M8lWQP5yrlfDQmeAXza/Ak4gmvHPjrMP/+nhZTUKwJlvpGcOO7jwwPvBv7+9FgT/zzxP/yLx1rXxenf5MsvPufYRw2Of+Ue3PvisxN86A0t4zX593XIzf8rELA09c2wtmmu6/jRj/jKuV+l18XuI+a96msAUvm6v7I7Dp+9MpltC/MiPCbzoVtp7l8fYNvvdnA8ZQTXzH8Kj9keo5suH0RPanjLbRsiIiIiIiIiImdQpwYAo8q9hFSg56jZVFU97njMZmSy2bn76tn7Yr5yzjlcfcskJj3yVOBx9S2TAuPp+VWVFnP4b2+TknpFoN/o77Ztiox/nvgfPj3WZC4GCAQKY+XdtoktL/yWL7/4PPA8bn/olyFZff/iuZBzzzufMd/73yHP0znuYdeTSb9b3AOakdx05Roq8yuYw/8ht/wBIoxuKCIiIiIiIiJyxnTdAGDlhzQAx7cuIydnbvgjUO7bvR0/+hFfnjzJ7lfKKHv0gbCHOXHHlj8to+zRB/h/JYv5tPkTLv3mkDYHASP5H5+V0RePDw/sZ91j/07Zow/w97+8yrnnnc+3p/wgEAT8H98nfPHZCTb/8f+EPcfyxT8KK2NuD/GWAAPwracY+YMR9GzawVsL8+KeEOTVdyeTW57HUv43lflnYAZjEREREREREZFWxB8AvKGIZ8vKKCv7JXebbX528C71cmOcvri4l/qennNpbAZP3y/MhjbYxD98gOfrnE4Om1nqG6tjHx1m88qn+bT5k1Yz9i7pfyXn9/TwUZ1VZvxR3d84v6eHS/pfGdovQjlyvPb8v7X8/S+vhpT2tlbqG8lNnlSggX+0Ms6im3hLgM+7ZQ0jJ2TCgTK2LX2Ez0Kb4/LqoX0cJ5Nr3IKMIiIiIiIiIiJnUNwBwOtHDSAJgAyG3Gu2+tnBu1Hjuc9sipmXhyvrIXM868wJP9rsHDbtvwD6n+Axs6kNlr1fA70GkdOG8en8vNs24fvoMJkjbog4fh7AJf0HkjOrkF4XX+pYZgX2omXs9br4Ur7x7Zs4cdxHbbU1I29t9VZOHPfxjW/fFFjfJf0HkpE9Gt9Hh+POxhv93dkM/dc7QpaZ4wz6t3nVjRMiTPjhZhw5VyTBsaP83WxqZ567Krjm2iSOb/8F255fYTaLiIiIiIiIiHRbcQcA39z6Hi0A1PL2M2arn5eH77Bm653iGL9vWYHZrxUlT5FTXA1h4wA+wpJcs3Nslr95AT6aGNYetZkfvIWXJAZdHjlwF4uq0mI+rNkXNg5g3o8WBgJ0Hx7YT/3ubdw8qzBknMCaHa+z5U+hI81dkHwh/1pQxKRHnuJfC4r45/+0UPGb+Rz76DA4sgeBQL8x3/vffFT/98BsxfHY8qdlXJz+zZB9/9q/JPHqfz0RmPH32EeHqfjNfI5/ciRsHMCIk5r0GsegXuDd90irE62clssepV9/+HBD/CW/IiIiIiIiIiJdXY+0tLRT5sJE99jT9Uztn8Kq8ck8ZDbG6aYr1/DzgbB942SK2lCm2t5yZhXytX9JYvPKpwMBv+5q9rUVTPbs4D82dnAAsCP0epTym0fQsC2PAs0ELCIiIiIiIiKdKO4MwETwUFkffDQx9enTGeXN8uq7L+MliWtHPnpaYwGK4bKnmHz5Gcj+6yjH/oFV/CwiIiIiIiIi0rnOygAgVUkMLU+B/g3sWXDSbI3TCgo27uB4rxH8/NoZZqO0Ra9HKR+ZyfH9v+jG2XM1HD0GWYMUGBYRERERERGRznV2BgABliWz+C8X4Bl4gplmW7yOPUL+thq4/BraY2jBs93sgSPoeaiM/He783h8myja+Au2M4Kf51dQebMCgSIiIiIiIiLSOc7KMQBFRERERERERETOFmdvBqCIiIiIiIiIiMhZQAFAERERERERERGRBBZTADAjI4Pzzz/fXCwiIiIiIiIiIiJdXEwBQBEREREREREREemeFAAUERERERERERFJYAoAioiIiIiIiIiIJLAeaWlpp8yFpoyMDA4fPsyJEyfMpi4ru7SWiX22sPyOu2gwGxNZQSXzJ2cF/65ZxcJZhc4eCeusPee5zzOncDQp/r+bu+YxuK/0caZkOhbUvEzOrKrg37nTWFeYTU/qWZ3zFL91dAWg4AGqJqcF/zb/fRdyKm8Pnw3Yy3m/nkYPs7E9dJNzHosfLN3AHf1b2PHEd1jwqtnajhLomAXNIG9tEcOPdPJ9vsu/72SxZO1sRiaDd81cZpeY7e0ocB+zNVez5I6VtN+dyn4uR87c/W/mgo8oGngBi6cmsdxsbA8xvzZPsnLV+wzefwVDF5xjNgYN28iJW+FrC27Wr9wiIiIiDvps5Cb3eeZU1TK9wGzoBkpyWZiTwcKcxexsNhslou58zivvYmlOBgtzMlhfYzZ2DVbw7xjbiueSk2M/4v3yWvKU/W+Xsa2Va/u+0sepWjuNHLPhTBi2kc9Gejj3zQ4K/tE9znl8GjjYkcE/OvOYFTO9qpY5i2aYDYlD7ztBlSu53b7HrT6j11kHmd1M0bc/xftqBwX/iOe1eQ7TXk3B8+332TjbbHPYtYqvNmXxzx+vpNVfuEVERETOIgoAikgHyyE7E6j5Mw9Xmm0OgS/OLtl/3cVlK/n81izO2baYc3eZjSLSObw8fIcVlOvQ7L9Ek9PCnvwmfH+5gpuXmY2dZFkyi/9yAVn5H7Ey4i88yznn16s4N2U0n01/zGwUEREROWspACgiZ8TxxnpzUcL5Mmc0J5u2cG5Fh+XKdKIZpM+v4KpbxpkNp6XmoxZzkYh0AY9NOoKnuQ9Lo5XbdoLlC3qzpflTRs9qYabZGPAQ577khcypfDHMbBMRERE5OyXMGICpi3Yzc5QndKE5jow5zgw+dhZfTYWdlZRdWstE5xhlhro1GTwXyB6wx15KDrY3bV3M0nkrggtiYY+dFLpui7U/Xtbn5FINcW4z2thQxUyvmkqK8W+tY9jo2B4u2ww9Zp0ppnMetv+hxyy+c+7Svy1jXXXYOY82DmI85zz82EbbZutyWFY1ntSty7h9ntdsbMOYWRHGwDLXYwpbb3BcMMsxthU/6shSdGxn9SUh6z7u9lwuW8nns0bT46X08Oy/uM55fNdZ5HPe/s67ZQ3XXJsEB8rY9nxbr4dQNz7y38wd2cDaCT/kd2Yjbvft0GMVEMc4dK0fM+v1kh74O8I2o/QzX0OmsNdUjPsfdm0QuW8kbtecxX4+zvWFHf9o7wFR3nfs9TS53VPDzoV534u2zWhae41b7it9nCmEv87dxwuMbZ3419vHvO9EabPvYQ3GdsPGT8VtDNTY9itn0SM8PKpXcEHYemw5LeyZe4TG8rTw7L+ucD+b3UxdfhNet/0LmMnJHxfxOVsij8d6QxHP/vBbJNW9yKSf/sFsFREREUkoCZEBmF1aawcxrDFk3MeRKWZ6AawO6eNheOFu8nKtHtWz7LbiLTTZwR9/34U55peWOVDiaF/jJWVUUfzjPJXsog5Izy42GooZnAlNW1c5PkS30zZjVsz0KvvLnL3N5VsJOWadJbZz3voxi+ecpy7azeBqR3vxFpoypzK/1Dx3rejS59zl2BZvgbi3mcWStY9TVfU4VVXjyQJ6jppt//04VVWPsMR/DbXXmFnmepqrWeIfbzBnLjkhX8JzWFZlB/fs9iVbYWShY7/8MsdTVZjFO/7xC9fU03PUbJYZ40WeunowJ/HyFTP4R3znvN2usw7w2SuT2bahBvpPYuScRznP7NDe7KARWxc7jkcjY4xjkbpoN/Mn92Vnsf+4raKurccs93nm2MFy/zbX12QxsaqSbGe/gkrm+4NlgXvGLgbb22yYd3VwX+yAX7BfRlggvvX9n0HeWjs4ElhP28bcq672AlkMNsc8LRhGOj52rvYHZ1p/32x/7fm+Eyz9zVnTSgZy5niqCntTEbgfHCNrsnE/yJ3GuqrZjMR5b1kJUzpqvFHrPjqlj3N7bmOgxnY/s4J/hIzFuqTxurB7GcDM6z/FQwq73IJrXeF+tux8vEDW1Z+ZLQ7L+cp7PkgZzJeXmW2W60cNIAkgfQh3m40iIiIiCab7BwBzn2dMJtStMTMZTIU8Z/yiXL16C014yLohnsCGpXqWkY1QsoqdzZAyaBypjsWtK2RvDZA5zPhyaX0R874e/JLYftuMTeqiPNLxst7xS33DvKXsbPYwfEp8H95vfOS/2bBhQ4THf7PgJvNfRBHzOW/fY9Yw7+rQbIfKu9jsdu5a1XXPueuxrbyL1Vt9pIyaGsfzdHzxznkZr501FwjG5YRnppxJOYuuI4t6VjsyX6rmrWRbcy9GTjG/ytez2rm/JfvxAqmXO7K1mMmXAzxQsyvCTTX2c95+11lszrtlDSPnV0R4rOES84vzXx9g2+92cDxlBNfMf4rIOW7tIKsvKcbxofIuloZkDxWTO8pD09aljtdKIc+t8UJmXtxBo+wpo0lp3sJqR4CuetYq6shiTCAIPoO83CyXTKZCnouQ2RRZjPtfMJXhyT52lrSSGRWLCAGc7OwsaN5LtXM/2vF9Mxbt+b4Tn2NsKw6OP1r1upfj9OIix8v8vinZ9AzLJPby8KzwDL92UTCekcnH2FYSff2x3s++0bcXNHupctx7q+Y96pLleJJxAz+FA+fzkNkEXeR+dh67DgAXfRGlDBh67N7LOXg4danZYnlz63u0ANS9jfL/REREJNG5f1ftRlJvGEwKXvaGfYCNQeVBmsxlbbaChiPmsthYX6hCszHCv4i5afs2WzeD7EFWQCM0yGZvs0+/uAJQrz36HSZMmBDh8R0WxDED6Gmd83Y+ZocbfeaimHTNcx752DYcagT6khpnMKVryiJnUC+o2W9MNuLlH0eAPpeEZvM0H+Xvzr+pYnbOXKMEOItTKXDOEZcSZ1vbz3nbr7NYfPbKZLYtzIvwmMyHH5j/AvjgEd5ZWMaHZDLQLUjYXryNNNFKxplL0AGC/7aPM07bKjuDad8mI8jm5UgzpPS1V5Y7jqxkqKuON9jnIsb9j/VaiU0hlVt9RhAm0nM3tOv7pql933fiYgTGwlmTGR3ftz1qMK493ZedFsN+xX4/+3vjMUjO5uFWZ0j/gr7J4Gs812wI6Ar3M2/jBZD8BVFf4h8cpAdwqm+EMOHri/m3SZNU/isiIiJnhW4fAIxH6qLdzK+qdTycYzfFKfd55oSsy2VcplhVbsLb7MzGsL6I1VUamR7tuc1WZdEnGcicahyzjtxmB2jXY1bMdGNd0cb4iqpLnnO4tK8HyGKisc2Qscm6vTQuSrZL/gIlydYjbJyt9hTrOW/P6+yMSCJ93GlmgzUfxbX6u/Iuluasog4Pwwv9xyO0FDf18r4Q0m4/Qsati1FuP1KAlFFFoeuqCh2H05+ZGCXeG7N23f84NLy+NzSAUzCMdLxsNsb6bNf3zVZ14fed3EtIBRoOtcNJb1ex38+q5j1qlUInZ/Owv19p9FBgRAl7PxMRERFJXGdNANA/IHvoGG/W2Exx8w+KHjL2k/sYdLFZQfU+RzaG/UUsJAur3bfZGivjBWN7gUdrA3Qb2rUEOFbteszswfGbneNvZbB8a1szGbriOfdnZnhDxlYMPtoyCH9XVM/Hzfbg984xAv0PlwH720cM57zdr7PWxV0CDHDZo1w1fxKXUMP+hXntNiGIu0Ke8x+LNdbYdc7x+KzsVJ9j/LzQhzlJQVR2dps5Xl/g4S9LbVN2obt23f94GAGc7OyssMy7dn3fjEn7vu+0q8oPaQgr/e8K4ryflTwVaFtdYwcO2xQE7Jr3MxERERGJrNsHAF1LE+1xzILssqLmLVTG8mXK/hKYcrl7VotVJukcKL0VNxTxbFkZZWW/jDjIdMO8CursbAzXL2LxbjNu9jEKaN+Sq/YsAY7tnMd5zFo559aXG7fshgi65TmPcGyjufeXlJWVUfZMEdebbZ3IKnXrzTfMBnAtjTt9Xno0wclWIkKtnfO4r7N2EHcJ8LeeYuQPRtCzaQdvLXyA0/0q/9qj32HCtAW8Zja4Kcm1g4COa7Qdg3Fhpb6R2PcLcww9d62sM8b9P9zog+S+hAxlVjA1NDPRqdXX5goqKr12AMfO3gopaY7zfbNNrO0Gxf++c/cTZZSVlfFsofuzbD9WoK3noGvb8b4RKueGrJBZzF3vYwXjHTP9clr3s9/OsoOAYf/2XBqbwdP3i5Clps6+n2X1/RSazyVqTuZl/TgF9GhcbrbY7uaXrbxXi4iIiCSKbh8AtAYzdw4OXsz0wtHQ7Pxaan+pSB5Mtv9Loz3To3spk/2FLcKkB1aQxDkIuj07Y4QSpcAsc2Qw5F6z1c8aVDs9u5LBmeFBn3i3GZ39/AITScwgb61R4uYf4yd5NDNPd7a+9hbTOY/3mEU/59aX9NAv/NZsue6lTN31nFuTjHgYXmjMeBrB3YMzrP/xDGDsDWZr56k6dBRII2+Re1Tlt6urOZ6czcNtynxxY882mTmML82mENHPebzX2Zl23i1rGDkhEw6UsW3pI0SbfzM2N7JgZeQs4NRFu5luzFCanZ0FNNLgz0a1JxVInxxlnMCY+YNiU1uZ9do/hp7Zr5jpYfdL+/0n0oQkMe6/v2Q3MBFJ7vPMmdyXprAZYS0xvTZLdlkBnNJhpIcF+uJ932xFWNDUzg4zusX3vnM3Q+wVJA0YGyHQ2V68PFxpl8+G3DeyWFLa2ph64azgXhY59rG1ZujtFdLHmojEcR/Lnca6yb05bpzz2O5nWSxZ+wD3hSyzxjXkyIdG1vM5bNp/AfQ/wWMhy02deT/7jGH9gY/PJVJoj8Ds7D56HDZbbPcOwXqlZJDT4UFkERERkc7VIy0t7ZS50JSRkcHhw4c5ceKE2dQ1+EslwS6luprqG3Yzc9BelgdKhsyAh5f1ObsYXDWVlK2LWWqMe+T25aRuTbAcy18a5Wzbm13LxD5bHNu03VDEsz/8FknU8uKkf48801xBpTXWWrPLOmLcZnZp5ACRc//N59e0dTFLD01l/mRYn+OcXTf8OBC2rk4Q0zmP7ZgFhT/XkOfpPz+2pq2LWc0cZo5qNI7ZmT3nZh+nppBrO9ZzHuE6Cpvx1M4ympgBvr/y63sX82Zoqy2HZVXjSd26zJg4w251+eLrd9zxb+4rDR/Tys+7Zm7YTJZh6w2bvdPaLzNEGFxXFkvWzmYk5r+L4LKVfD5rND1eSufcXWajQyvnPJbrLPZz3p5mkD5/Eknbf8E7r2wyG9voRhasnMuI5BZ2POGeCRx2LUY4bq7HxNHXtd0WdsxC7i9+1n0mpAzeOFfW+4rb7OTm+0/4Nl33z3yuIduztkVpLRNp62szeHzN/bGY++3+vhl2jhxC7qHGca1bk0Hl5eH3bfNe5ef2vnP3E2Xclg4tO37NvxUbzzJ3GusKs0Oy6gIc94P7Sh9nSh/jdW7/2wbz3hK2zmNsKw7OEh5233Fw3s8w72nN1Sy540O+UzUenNsseICqyWn2H/WsznkKSh9nCi+T45j1t/X7Ga59zH0KyGlhz9wjNJancfMys9Ghs+5ns5upy/8nWx6/mGkRb84zOfnjIj7/eBXnP+c+nzFcT9EzP+ZbHqDuRU0GIiIiIgktMQKAIiJdwJfT6/hnppevLbg5AdKrReRs9tjT9Uztn8Kq8clECp91jpOsXPU+oz9OJf3+88zGoGEbOXFrX75aOpRzzKEMHK4vfJYfj0iidv0k/v0Zs1VEREQkceg7qohIO/lK1RbOIYt/To9eOCci0tU9VNYHH01Mffr0i/3b08wFRxmdfAFbyqIE/3iML27NgpqKqME/uJvbRySB76+sU/BPREREEpwCgCIi7eWDaXz1JWsMuc/zZpqtIiLdR1USQ8tToH8DexacNFs7x+xmir79Kd7y1kp/p/JF0xbOi1r6W0ZZ2W303fFrJkUpkxcRERFJFCoBFhFpZ6fy9vDZgL2c9+tp9DAbRUS6kZkLPqJo4AUsnpoUdcKNjmeV/g7efwVDF5xjNgYN28iJW9FQDCIiIiIGBQBFREREREREREQSmH4cFRERERERERERSWAKAIqIiIiIiIiIiCQwBQBFREREREREREQSmAKAIiIiIiIiIiIiCUwBQBERERERERERkQSmAKCIiIiIiIiIiEgC65GWlnbKXGjKyMjg8OHDnDhxwmxKPAWVzJ+cFfy7ZhULZxU6e3Q/BZXMn9yXncVXU1FpNp4pM8hbW8TwZP/fvk7en+5gHJfM+RnpKf6/W6j73WQ+/CC0F5c9ylU/GEFP/99NO3hr6SN8FtpLRERERERERM5SygA0leSyMCeDhTmL2dlsNnac1EW7mV9VSbbZkDBWUHFHhnVs13jNRnG1iQ+X5rFtYR7bNtSYjUEfPMI7C61++w+YjSIiIiIiIiJytlMAUEREREREREREJIEpACgiIiIiIiIiIpLAEiYAaJXQ1gYfpcVmF3scOkefqt3k5Zp9Ymduc86iGWYXS0FlhH0rZrq9bOYoD5DFRGc/l5LgmLaZ+zxznOtxjmkYK3sdbuu39sE4duZzdNn3WLiXQlvHKWxfzG26nvMz67xb1jByzqOcxwzS51cw0n5cdcu4kH6euyrsfg6XPcpV8ytI/5ZzYfu7+4kyysqepegGs0VEREREREREElFCBABTF+1m5ijYWWyPMZeTwfLGPKYXOHsVM72qiOFHVgX7bIXhhW0LAmaX1jJzVCPr7XUtLN4Co4rCglTZpVYArm5NcN8WVg+z962Q5wL74gO8wfXlZLAwJ5dqY12tbrOgkvmFo2lybq8tY+5VbsLbDCmDxpEa0jCD7EEeqKkITuCR+zxzsnc59nsxO5uzmBgWyGs/qYt22xOb+Le5irrMqV0iCEjKCK6ZP57/+V1w/L6e1/6swwN7sbmbIekASQwYdb3ZKCIiIiIiIiIJKCECgJf29UDzXqodM8o2zLua50qCf6cuyiMdL+sdM/o2zFvKzmYPw6fEGTTKfZ4xmVC3xhGgq7yL1Vt9pIyaGgx6BfplhOwLJbmhf8cipm3OIC83C2pWxb/+MCuo3ueD5MFkOwOkuePISoa6asfMyJV3sTRkpuQVVFR6gSwGhwRh20sxuaM8NG1d6phFuJDn1nghMy/OgO4P+M8NG9gQ6bH0B+Y/iMmHGxyz9f71LT4Eki4OzQLsHH/g7TqAFt7b+qbZKCIiIiIiIiIJKCECgIcbfZA8mplrnzey1fz8WWu7QjLqYAUNR4A+/SL8O3epNwwmBS97jSBbw6FGoC+pdgAqUr+2iLSukG26BedOQ8O8CurwkHVDMMMw0n6E8TbSZC5rLwXDSMeH9/UVocu9jTThoU9cFc+/44cTJjAh0mPO78x/EIMajv7VXNZ1/OGnk5g06d9Y/LrZIiIiIiIiIiKJKCECgA3zrrbKXJNHM9N1PLgs+iQDmVONcepqmZjp6BajS/u6jdcXPtaelZnYyOGQpW0T6zbbVyF7a5xlwFYgtWnrKiOQapc6O/ercDQpRp/2knp5X8DD8MIzt00RERERERERke4qIQKAYJXV+segW19jB/sCQUAvR5qBmuD4fyGPO+6iwVhdNIcb3cbr8z+uDpSlWpmJfbnUXEEbxLrN9lZd7Q2WAeeOIys5PPMuu7SWiZm+kDEYFxZv6bAMQCvr0die4xFf+XPHlACLiIiIiIiIiHQViRMAdKieZQcBA6W9bSv1jcQs9Y3E6hfbOHitrbO1dgAqD9IEpFzunIjEHhcwAmtG2DKeLYwwIUTJKnY2W2XAqTcMJsUYaxGKGZxJ6KQg7a1gGOnOv9tU6htJR5QAt815QwbR01zYAa4vfDb6ORcRERERERGRhJIAAcAZ5K01Z5u1g1JHDgYy+6pXb6EpeTQz22OWWDsoNrzQ3K6hZBU7myF9sjHTcEGlMUNxMKgVcUKSmLZpl+w6JiLJLi1iOL4I2Xj+GWEhacBY3MNB1mQgKYOmkjvIQ12lmS1pZ1dmDgvulz0TcVvKccOCpgWV4WXOlXexucbluHYjnx1pgZRBpFxm/X3eLWu45toks1sHuJ6xA6ztJI24nbvNZhERERERERFJOD3S0tJOmQtNGRkZHD58mBMnTphNXUQx06umhmSJNW1dzNJ5xiQRLv0gdJZeq5zV6GAzZ/N17VuzioUhM+K69HPpA27BLi/rcxyz/rqtC3N9M8hbW8TwZOuvpq2LWfr6OOYUDsZbHF4qfPcTZdyWDi07fs2/FUeYFTb3eeYUjibFZX8sxnFt3sLyEphSOJom/zELrMNF8xaWO8qwUxftZuYoj/2Xl/U5q0hdW0TWvtBzGtrPZqzrTLMCeQ3sX/gAvsDSGaTPn0TS9l/wziubAks9d1UwsL/9R9MO3lr6Dy6dPwk25FH3V+CyR7nqByPcswKbdvDW0kf4rJXg4XFjmwDc+0vKJmYALfz1PzUZiIiIiIiIiEiiS5AAoIjE7m5+WXYbGb6/8ut7FxMh7CsiIiIiIiIiCSIBSoBFJB7XF+aQAdS+oeCfiIiIiIiIyNlAGYAiZ4tA6W8tL076d/5gtouIiIiIiIhIQlIAUEREREREREREJIGpBFhERERERERERCSBKQAoIiIiIiIiIiKSwBQAFBERERERERERSWAKAIqIiIiIiIiIiCQwBQBFREREREREREQSmAKAIiIiIiIiIiIiCUwBQBERERERERERkQSmAKCIiIiIiIiIiEgCUwBQREREREREREQkgSkAKCIiIiIiIiIiksAUABQREREREREREUlgCgCKiIiIiIiIiIgkMAUARUREREREREREEpgCgCIiIiIiIiIiIglMAUAREREREREREZEEpgCgiIiIiIiIiIhIAlMAUEREREREREREJIEpACgiIiIiIiIiIpLAFAAUERERERERERFJYAoAioiIiIiIiIiIJDAFAEVERERERERERBKYAoAiIiIiIiIiIiIJTAFAERERERERERGRBKYAoIiIiIiIiIiISAJTAFBERERERERERCSBKQAoIiIiIiIiIiKSwBQAFBERERERERERSWAKAIqIiIiIiIiIiCQwBQBFREREREREREQSmAKAIiIiIiIiIiIiCSyhAoB3TfgDK2f/gRXXjTKbQl38ICtmW32tRwk/u9jsFKdhGzmxYCNfmss71Azy1tYyv7TYbDgLzOTkj+v4PG+m2RDRqbw9nFhQx4kFezh5mdkqIiIiIiIiIpKYEioAGJOLH2TFHVdzwfsVTFt2t/0o4BcfmR3jcNlKPr81i3O2rToLD2hnWc45b3o5ObKIL4aZbS6GbeSzkfDV0nTOXzCUcz4wO4iIiIiIiIiIJKaEilc9v8EK6M3481azKWD0N7/BBXzKW9v/ZDa10WN8MWs0J2tW8dWK5WajtMlNzC1/jKcDj3nce6PZB9h1M+dt8/HFra1n9H05KAtqKhT4ExEREREREZGzTkIFAGP3EYdOJ+PP4VReHl/g5WvPPWQ2SVvceCfF5beQUfsK9+c/xP35D/FibS9G/Mg9CNijYilfbfLw+XdWcspsDJjJqYvMZSIiIiIiIiIiZ4eECAD6x/7zP5YMNHt0lMc4OdLTeulvQSXzq2qDD5cx+1IX7W61D0B2qaNPVRHDk80eAMVMd66rqpJss0sXNf62a/D43uI3D74aWPbyg6Xs8PVixG03hfS1WKXApIzmZCylwCIiIiIiIiIiZ5mocavuwl/6O23tbj41GwEGPhoIDj4w+AIgjQnOSUAmfNf8F7EZNowv8PGV3ZFLf7NLa5k/OYu6NRkszLEf1cOYXuDvYU3kMXNUI+v97TmrqMucyvy1z5MaWJPVb2KfLSwP9FvMzuZAB0vu88ypmkrK1sWB7a2vyWJitwgC3sSQDPC9t533nIu/fwsjPEDGlYx3LvfbtYtzgS8GPWa2iIiIiIiIiIic9RIiANiq/Y8EJvx4au+nQD0bAhOA3M20DW0bD/DLQVnQtJevRBpXLvd5xmRC3ZoMnitxLC/JDf5dMJXhyT52FudSHehQyHNrvJA8mlx/oNDfr+QuGgL9wmVPGU1K8xZWz1sRWFY9axV1ZDFm0YyQvq258ZH/ZsOGDREe/82CmwB+wH+GtTkeS39grjayGy/hIuDjhprAogEPz+PpW+HFl+qB3lzqUgYMD/GVGuCiflHKgEVEREREREREzk5nRwCwQ9jjyn18kB5mky31hsGk4GWvM/hnyM7OAhppqDQaSnZRB6RcbgXtsrOzoHkv1Wa/EMUMzoSmfZuMIKGXI82Q0jcrZGlrXnv0O0yYMCHC4zsseBXgd/wwrM3xmPM7c7UxyuTePzzGj/ps4f78p3nZbDb0OOKDlL7uAcDLxvFlCpy7T+M0ioiIiIiIiMjZRwHADnRpXw80N3LYbDBF6RNX0C63HylAyqii0PEEI44V2FXdxNzyWQx4r5T7HWMBxu2ylXy+oI4T34FzF6Rz7i6zg4iIiIiIiIhI4lMAsAMdbvRBcl8uNRvi0NToNRdFVnmQJqDJMf5fyGNWofkvojrjJcCvfcjHQMatt8BLD1G4xFEKnNobOMrh10L+RXQfTOOrC9I5/7/hiwV1fKFJQkRERERERETkLKQAYJstp8fH0cedazjUCGQxODDhR7jqai8kDyY712goGEY6PryvW2P5uQYTC6YamX1tK/WN5MyXAL/K27WA7y1e/C/n8kxGD+gFte9GLAU+1ccDTY3u5dgfbOIrTZokRERERERERETOTgoAnoav7PNCymC+vMxssZWsYmczpE/eTZ4zwFdQGZwFuGQVO5s9DC9wzvhbzPTJWVBTQYU95l/D63tpck7kkfs8cyb3pSlkFuAVVFR6IXMqc+Kc8KOrePnFt/B5ruHehzMDy8Y/OYsRnnpejFgO/BhfZkYfj1FERERERERE5GzVIy0tLVICW0BGRgaHDx/mxIkTZlMX8F2WzM4j3VwM9my/j/C8Y8no60p4YPBHYcvb5jG+WDCVU9sW89WK5WZjQHZpLROD8SyoWWWU484gb23oOH1NWxez1DGTL1iBw/mT/dl9Xtbn5EJpLRMx1pf7PHMKR5MSXAL42Fl8dSCg2KXdeCfFP7oGT2BBPS9Gmwhk2EZO3NqXr5YO5RzXGZlncvLHRXz+8SrOf04TgYiIiIiIiIjI2SUBAoCd61TeHj4bSZTgk3SsWIJ7sfQREREREREREUlMKgE+TT0qKjgXD59/Z2XEsQCl45zKm8PnKT6+WhUtsGeP1ygiIiIiIiIichZSAPC0PcS5pVs4J2U0n03XJBNn1LCNfDbSw7kvtZ592eOIDzLzOBlpvEYRERERERERkQSlAGB7+GAaX33JC5nD+NJskw4yk5PXZ3HOtsWcu8tsC9ejYijnbYPPZ9VxYsEeBQJFRERERERE5KyhMQBFREREREREREQSmDIARUREREREREREEpgCgCIiIiIiIiIiIgmsWwcAMzIyOP/8883FIiIiIiIiIiIiYuvWAUARERERERERERGJTgFAERERERERERGRBKYAoIiIiIiIiIiISALrkZaWdspcaMrIyODw4cOcOHHCbOpUXXW/JFZZLFk7m5FHXiZnVpXZGJQ7jXWF2TSsmcvsErPRNruZunxYNT6Zh8w2201XruHnA5OAFrZvnEzRMbNHN5f7PHMKR5OCl/U5uVSb7Z1o7LgJ/CTbQ0v1Br63yWc2iwsds0TSjyceHEN/DrLuyc383mwWd6lX8cdpQ0kKLPCxa+UGFjWE9IrCw7wZExjm8f8d4d8PGUN5br/g3/WbyS876OyRUO6ZdCe3p9H6vSWW4+8/dr49/GrFO7zhaDot9rY/rHyBn75tNp4drPPkcsxDnMF7S0El8ydnBf+uWcXCWYXOHiGyS2uZmAlNWxezdN4Kszko8NnFz8fO4qupqAzpJcygJH8SWQCHysjdHumYnmTlqvcZvP8Khi44x2wUEZGznDIAO1wx06tqmbNohtnQ6VIX7WZ+VSXZZkN3k9PCnvwmfH/pGTH4x2VP8fOBsH1jHrnlCRj8i1HCnHMRSWz+4FP9ZvKffMF+RAuEuPGxaIX9byujBPTe9m9jA7uixMPOKu1y/OX0NfN+VznmJbkszMlgYc5idjabjW3kD/7VrLLXncHCHAX/3K2goDyP3PIyvJdPovLaSN8rzmHaqyl4vv0+G2ebbSIicrZTAFC6uc/YOPcIngOpUX/pnH1FJhx6ObEDf5V3sTQng4VdLPsP4I0j1reFD4/o23WsdMwSSTOf+ADfJxwwm2z3TLqT8gcdj0mOjLSz0NiB6SThY9efowTupE1+X2YF9KJl/8V8/P3B0/bM/pM4tH5v6SzVs6yAXrTsv9QbBpOCj52rI2cSnlmZ3PuHx3i6PPQx9/tmP8v4J0P7FT+caXaBG++kOGR99zPe7AMMeHhe6HafvMnsYlvB6v0t4Pk6kXqwLJnFf7mArPyPWJljNoqIyNlMAUDp1mYu8JFFCqvuP89schjH1wMlYCIiXYmHeTPu5Pa0g6wLZFq9QP7f0vjjuLP9xtWFsp/OSjr+nenA0cgB2sTSSEOXyfir4Zm7H+L+/ODjNzuOkXGrGQS0AoW3ZdTzor/vS/V4RswKDQJ+/36e/tE1sKPUXl8pO3xp3GYEAcc/+Rg/GgE7fmOv6zdv4cu4JUoQEOjVm2+YyxyWL+jNluZPGT2rhZlmo4iInLU0BmAHSV20m5mjIn95M8dECevvOrbKDPLWFjE8ObjEXA+4jafiHBOumOlVU0l3dA/VxvHjCh6ganKaY0E9q3Oe4reOJQD3lT7OFPMH0hpzDMAcllWNt8Y5cfCGjQH4GRtfbqDvX1ob52Qci2/+Gdf6ooyZEvWYOUQbA8deBy7nxDq/GOPamOfC3KbVnrJ1MUsPTQ3Zbt2aDJ7zHwtz35u3sPyOuwh+bzO3Y/Jv1+4X9u+DzztkuxjlO2HXazz84xj5hY97dM+kO7n9QmOcqYjjRJnrizA+Uixjf8XSxzGulp/r+FphY2pF2K9O4B+vyc+8t1jXcGPka3TeCmsdrGJ5Y551P6tZxcLV/QLXp3X9WPexrH2L2dy3KDhGVOAaN8Z/Ml9zYa8T+754JHRbOJ+DvQ7zORF43uY62/PaboV9fR0Iu4YNEa5119eFYwxJP9frMaYx8mLpE/u1HdPrJLD/za7r8L++LzH+bdR/M2QM5bnJ7vseYD/XT8zXuP8YuDwn+3kT4Xm4sY6By7r89y3jHtPauQw+7z1c4TxXxrh85rGPds1FPZbEfl8khv23mPdsS7R9dBXP6yTGa7bV5+q4tt6/znmMXdYX6zZjOQedxnHPdbk3mu8lYZ8bHNzfV0zmZxiX+7XN2nZ7jyF4E3PLb+GiHaUULqmxFn3/fp6+tTc7frOIZ14L9hzw8Dx+NOIoL+Y/zctkcu8fZjHi41e4/8FXg53M9d14J8U/uoaPX3qIx//L0S3CNgiMad3AmvIHWBbaFGp2M3X5TXjL07jZteP1FD3zY77lqeXFSf/OH8xmERFJOMoA7CAN8662xzJZRZ39RTQ4vomzJGIGeWtr7Q9A/vZV1GVOZf7a50l1rDO7dA6UBNexcI2XlFFFoeMLOoJQgX7FjYwpLbY7FPKcvXz5Vp/9QcqxzggfqqLKnca67P3k5My1H8vY1pzGlKoHuC/QKYslax9nSp9qloT0C1mTta6q8aRuXRZcX3E1x41uAMw+QRYXsPfNaMG/GLR6zCypi3Yzf3JfdhYb58nfr3IT3mZIGTQu5LzBDLIHeaCmIviBNPd55tiBE/8219dkMdFlfL6UUUXMn0zgPC3f6iN98m7ycu0OgdLfDNbbn01DxXrOC6nc6oPkwWT7123Lzs4CvOw1PsRb5TtA5rCw/Y6d40tvIANqDxdOvIqxZtdYDBlDedj66hlilFTeM+nOQODFmXX1xJBgn7HjJthf7Px9NnMgbUxYeWbwC31wXRt7X88854XgCBQEtrfyE27uAqWewSBY8LrY3HdO8BqLR588pvStYOEaL2TmMadgMN5ia8yo9GzHa2rQHMY0Lmb5Vh8pg+YwZzKsz1lFHR6ybrDvabnPMyd7l+NaXczOZvfXCZlTmV84GK//9WnfH6cXACWr2On62ixmcCZQsyvsvtc+13bsLukT+Qej+FgZhT/JxnHdvkApQ8OvxwcnMIw9/Cpw3b4J1zlfd/144kE7IGb3+VU1DJs2IXxdMVzbrb5OhowJlEBbAaN+3N4lyqJ9LNp2EOjHEMf9AUep7Lv7zYBWZL//m/u6GJJGf6Ps9p5Jd9pBIP9x3QPZE1yyQ/tx+4MTuLLGfw42c8AzlJ84jpm/9Dd/5R5aQv6tLZ7jH+O4iTHtf+pV/NEO6Aavnwj72F5ivGZjfQ8AD8Om3cntOI9LP26f4Xg9xbjN7s5f+ruweAtNZiP2jzpVtcyvqrV/+M5iov33/Kra4Gcq4vusFLifO99DOsj4wWngq2FLSGDuJm4b0QtIY8j3gRuvZYAHavc6g38w4OHRZACeAdcyABgwOhMP9bztDP6Ryb03pAG9GDDa/NU8DsvOxwtkXf2Z2WK5YSwDPAAZDLnXbBQRkUSkAGBnK5jK8GQfO4udgbdCnlvjheTR5BYEu1bPMn7RdPtSm9WXFHx4X3dkuVTexVKXX2nbTeVKbg/J4PPycGU9kEa2f/8LxjMy+RjbSlYSZb5f7puSTc/mav5zntdsCvPY1U3QfAGboq0wFjEds2JyR3lo2rrUcQ7s85SZZwdKVlC9zyWAljuOrGSoqw6uL3vKaFKat7DakY1UPWsVdWQxxpwwpnkLyx2B2YbX99KEhz5mimQ78K879MOz9aG6aeuqsCCJ1d89gBKzVA+XAAf+5sweOchP2zSmlId5I/uFZ2hwkJ86/069ipvTXLJL3t7s+Lsft2d7aKl+05ExdJCfVh6ENGcwxcMVFwL19SFZGr8vMzKNLr4wPFDQ8A7fi5A1c+bMILVP+DkMu9/EKhm8gfGcPLDP8Zrp0y9wr0pJbmSz//pP9tC0JniNp/S1L+6w1+EKKiq9QBaDHfdGi5f1zsHjS3ZRB6RcPiPya7NgGOkRxp9ql2s7Fm/vYZcPkrInUP6gEVhriyFDGeYJz9J7Y9Pm0Iza64aSFDZzq49FZcG/x44bas0u6rhG39j0Jrt8HoZd5whaxHRtx/A6CQSVXuBX1T47OyoYLIyUYXZGvF3PAaD/N53BGg9jMz1QvydKVqEL13XBPd/sB7463vCvK3CfcmSANbxDabWPpOyh3BP8p2BnywUz6w7ydj1woSf2H1La+/jHuP/+a7E0LCuwA8V0zcb6HmBpqd7gOEY+3qjxgefCYFZjTNs8CwQmE4nwo6Tjnh/XZyUK2VsDmJ/nTtP4J28hg3pe82f/kcmlFwEff8h7/k433klx+S3w0ivUAhelZkL/C/FwjCOOwRnHP/kYPxpQw4s7joHnQjKAjD69wPcJtYFeNzG3fBYD3nuFHT7w9HFW11he9cV6wzmPXQeAi75wLwN+/Q3e8wHU8vYzZqOIiCQiBQA7mZVZ5TL+SciX10hW0HDEWORtpAkPwwsdGWKdwXs0JGvvvuw0aPZSZT7PEDlkZ8LxfdujBgktJ+l3EfDxuSw3m0y9xjGoF3jfj/CBMJZjZgcKwj5U2v/WH4xrmFcRmsEUyCRyZs/ZAbV9m0LLbPFypNkR/PA7cjC0n53xF6mk5rS4ZTFGeu44sg9PJ8Dc4ONDoH/unSHZd22S2o8rPWYwMZyVtXOQt6OVltnZOGGZPR99QgseLrzYv8DH+58ArlkhDva/C8ue6nT2fcSZzXo6mvdS7XidNx1yuW4wA2s+jrQe87d4G92zSpobORyywMp89WdbuwW3s7OzwvY3oD2u7ZjYM9VWHgxkEZU/eKdLhldswoJIrvoxJA1aag5GCbL7g1uhAbvA9e4MLMV0bcf4Oumy7IBaWlow8Bbj/SbcQdZV+0LX5XJOIt2nrAmCkrki5Fj7+OQj5992xl+bfkhpH7Htf/jzPiNiuWZjfg+wmBM2vbFpA/nO8t1YtikOcX5WCmQftvHHKwfn5B63ZRxjx2+e5mWzk23Aw/N4+kcX8lq+UcIb4ibmlj/GjUdKuf/uFxzBPsP37+fp8tEc+c1DFC6pN1uDjh3lOJmMv3Kc2RLG23gBJH8RNqyO5U0W3zuJSSr/FRE5aygA2BWEfXENCvmAk/s8c5xlElWh46yA/0urVUY3vNDfz61Uon3dV/o4VVWOR2E2Pc1OZ1qvRynPr6ByJCwtz6PgA7ODLYZjlnp5Xwhptx8h4wYS+AU6GECzyn9Dsudy+5HiL+0NOZ+h4zt2DjvDypEplZ2dFVq+3O4O8lO7jKx/rr/crI1fkOwMC/OLsKl/b0+rsyaO7ZMcEpAJPELGb7L8vszOmEkLltCFBXAa3uF7T27mQMg6x4Rl8XSG6ll2Jkbm1MD1GDK0QCfKLm3tNRejyrvYHPLatL5c1lUa4112FqOkMil7AuXO8sGY2Fl2n/iiB1PsrFszYBEqmQs9dsDOef0/GDqOHMR+bcf0OunCfv/nPbQ4SnfHDkwnybeHddF+SIjgjf11Ieuygk0H2ejIguvf26UM90Fr6ILuoEvvfwzXbDzvATGJYZthWnmfSmid+Fnp5QcdE4H8poYBP3Kfldef0feb/MgBQvr7swMfCo4h6CLj4Xk8fSu8mB8+5l+YY4+QX57Hy56fUZlfQXkMgUAREREUAOz6mhrttBjngPSOUonWxnxbuMYql3MfL6V9WBN7HGNbsX9svyjj9p1J9gek3G0wJ7+CksvMDk7Rj1nDoUZ7cgJHmYrj4czGq652BNByx5GVbJYXH6TJZVxIt/KXTlGyy5HFaAdJHOXLHcPOggqM/dTGLIkImRmmA0eN0iwXVpaKL2QcNefDHJjeyvYIDeCEBzcO8lP/OiqtccBub+0L4BkSHLfUGq8vbHzRThAc0N3x+og0rlQMQl6bBcNIdxnXsvNZr4VfVfvAM5Tb48qKdcnOc2Nn3UYfd7CZT3z2hAcu1394Zlls13Zsr5MuquEg7/r8pbtWhmSbM9dC1mVnbhrZltYssEYZbuARbTKTrqHr73/0azbe94DYRN+mOHSVz0qvvcAzO45BxpX2zL01HP4YyLiF23iF++9+wVEKfAkXAR831MCBT/DRixG3ZvLeb0KzA51lv7VHjoHnGm4LCySm0ccDviMumYD2D9zXvJ9Hbnke+e9uMnuIiIi4UgCww0UuVcD8QupklF1aZaTuY1VFVZJrB7T6kmpswwpqhS8Pc0MRz5aVUVb2S+422+yyXWr+zMNRMsT+3ngMknvzDefCgvGMDPkVt56Pm6Fn39D0kvumuGUTnsPBj6OMa+J0bBP7jkHWFTEGM9yOmVHqG1XJKnY2WwG01BsGkxJWYhj9muhIsZ1zazKQlEHjSG0tSOLPSm2P0lG/hnf4nh0EbC2QZ5WYOfjLiY2xtUzWFzuXQfidYgwmhvOxaIUd3OgdJU3h7c32F0CzlC8OUV+bbbWCijvsIGBr12jBsCizS58u/wQd7Zh96nhtWpmtUcb364hru91Z5ZNOVnA7nbFRrykruJeU2S9KoDDGYKKbmK7tGF8nMbNLljuUPRlIWhr3pPbjSo9LeWjMHOuyz6NZSuxe6tt9xLb/9rVoXAP3XNfGLDtX4a+TMG7XbJvfA2Lktk2HNzZtcAm0t83dT5RRVlbGs4XXm01dWPyflayM8SjDubSTl/fWA8fY8aIxwYdzQo/Xtlvj69VuMTL6bmJIBvje2857wHtbavABta87AokA37+SDI7x3pbwX/pvunwQPanhrUiVLQ5ZfT+F5nOJNMqG/9r4pSYBERE5KygA2OH842v5J4ow2F9Ihxc4Z/wtZvrk0LJLK3DjHL/Kmj3YLAFOXbTbmvXSIeI4g/6x76ZE/4J7/agB9gdxt1nCrKAdmQODM/4WPBBWAlz1upfjpJG3yP4glzuNdZN7czxkFmAvVfuOQeZ1LLGPVc6iR5jS55hrNuFDu1Mg+VPG5Zgt8YnpmNnlgyGz70ZkTTiQMmgquYM8LiWGdplt5tQzn2EV4zlveH0vTcmjmTk5y3XyD792mSl1yJiwDCD/zJrOUl4zsDF23AR7pkon/9ha5jr78UTIDJbWxAv9c40swyFjguMQNrzDxnqXPmH68YRZqmmPDdZyNHiBjx03IWyMw3u+2Q9o5v22ZsL0vzDw2sxp8xe7YqYbM477J64JZCAH7kGOyTcKKpk/OfYvZvGzvvyFXFsFlW0vAYbga3NUkZVZGOUHlXa5tmPgdl34Jx/AWV4aFty2Z892/CuANzbtsUsMjXLGcWMc17EdfDJmiQUP8yYFr+Xf/3kPLWF9wrk9h/BrO7bXSWzMAKaHeTMmMMy8HXSEt+s5QD9unzaUpHgn/zDZ6xoyKY3+bqXEb++xJlwxzmW3EdP+25NlOCbVGDtuArdf6GvbLMAxvk5iumZjfg+ITUzbDLBm827zcBghrueK3tb/JY24vR1/LOpo8X5W6qBZgL9/Pz8a0QvfjleC2Xn/9Qo7fL0Yce+dDDD61b7kz+Kr4ZnX6yHjFuZ+398pk3v/cAsZvrd4xl8O/NoLvFYLGbfeb2cY2pOK3JqGb8cLrZcDR/UZw/pHGy/7bobYv+JljC2irZ8iRESk++iRlpZ2ylxoysjI4PDhw5w4ccJs6lRddb/CzSBvbeiYJU1bFwcGp2+93ZK6aDczRwW/4dStyWBvdi0T+2xh+R3BIJNVNhfoZs0i62gPEfYl3st6x4yzYGcZ/fBbJFHLi64DBeewrGp8cIDh5mqWlMAPC7NpWDOX2f7ssYIHqJrs/xm+ntU5T0Hp40zhZXIcswhbJcX2HzUvkzMLllWNB+e6APiMjS830PcvVzB0wTnOBsM4Ft/8M671lZG73X1CgliPmXkOIEJff8m22/H0C/Rx8rGz2D+AdTHTq6aSXrMqaqmL6z7Z3K6jmM554Jp07o8LZ2l6lH1sTXgw7yDrnIOn2+6Z5Bh/zLeHX63wcfuDY8CczXfIGGOcqRjWh13uaMzIGL5v/m07MjNSr+KPxrhQYTMMu23PXE/crqfomR/zLQ+07Pg1/1b8ptkhNi7XYt2a8IlmQq81L+tzVpG6toisfdZ1ll3quB/Z15m1Hvt6YgvL79hE9toihh+xrhlrndjXmXnN23/7d6B5C8tLYErhaJoC++dcd/hrNoz/ubq9bp3a6dqORdh1Yc8oGpzR1WZcZwcqX2Bdnwn8JLPOuI7CA2KxrM8qdzRLM90DKOb1HfYc3K7tsO2Fr8fPet01u75uLaH71VK9ge8dGUp5LsF/47K9AMf+he27g9v++fu7tcXLvy7X82Nz3T/Hvco6VricOyf382gJvz+2dvxd98lmHhfXvsa9NqRP/Wbyy+AJt3t7LGJ8nYTtl9s1G8t7gP1+Yz5vN7FuM/gadntNtsG9v6RsYgZE/BzXurDPSQ7B9wvjnh0i/LOGdf9vDFsewuX9KfSzUlBw2IjwttjcxNzyW8gIWVbPi65j/GVy7x9mMcJxadS+5DIRyPfv5+lbHSfd9xa/cZYN28Y/+Ri3OTbs21EacczAm65cw88HNrCm/AGWmY1Os5upy/8nWx6/mGkRZte7vvBZfjwi6bSuDRER6T4UAJRubeaCjyj6NlE/3MQSABRTnEEV6TT+D++16yfx78+YrRLG/jKJW3BcJAZWECc8aCbSdd3NL8tuI8P3V35972La+FORdBGxBQBPsnLV+4z+OJX0+88zG4P8P/LXvciknyr8JyKS6FQCLN3a8gUevHzK6FktUcYC3MQ/3BMrJBK7BDS8fFm6lBuKmDkiCepeVPAvRlZpr5fNCv5Jm1jjybVU71HwT7qNu5+4jQxa+OvvFfw7W8xccJTRyRewpSxK8A+4+7ZvkUQLf31RwT8RkbOBAoDSzZ3HzY/3wZd8hKKnPzMbA/7ua4HLx7O4l9ki4YqZbpc+miWg0lVcT9EzZZT98Fuw49f61T5WBZXMHOWhbk2UcjORiDzMmzGG/r49lEYo1xXpUu79JWVlZdyWXsuLk/6Nxa+bHaT7mcGUgUlw6K3I2X+zmyn69qd4yyNXx1xf+Kx1bfT+K7/WtSEictZQCbAkhtnN1OXDqvHJPGS22aySiSSghe0bJ1N0zOxxlnOOs3MGxj0TOVOcYxe6jW0oEp1j/LyIY7aJiHSkGZTkT7LG2z62g//Y+AihcxD7WaW/g/e3Nj62iIicjRQAFBERERERERERSWAqARYREREREREREUlgCgCKiIiIiIiIiIgksG4dAKytrVX5r4iIiIiIiIiISBTdOgAoIiIiIiIiIiIi0SkAKCIiIiIiIiIiksAUABQREREREREREUlgPdLS0k6ZC00ZGRkcPny4y463dypvD5+N9AA+vlo6lHM+MHu0t1H8bNp9XNPL//envLW2gF98FNqr883k5I+L+DwFaNrCeb+eRg+zi4iIiIiIiIiIJLSECAD6WYFAzlAQ0DbwUVaOvbhLBgC/nF7HPy9S4E9ERERERERE5GyWUCXAPSoqOBcPpy41W85Gj/FlJpz7poJ/IiIiIiIiIiJns4QKAPqd6jvTXHT2uawfraZ2ioiIiIiIiIhIwkvIAODp+y5LZv+BlYHHo9xldomZua4Sfnax2ccuJXb2m/Bds4eIiIiIiIiIiEjcFAA0XfwgK2bn0Xfvb5m27G6mLbubDe+nMaFNQcDvsmR2HunvVwTWNW3Z66TkPshoR6/R15XY4wj6+1RQd0WegoAiIiIiIiIiInLaEiwA6KVHk7ksPnddezUXHNvNf/15a2DZ8xsqqCONcdeNCunbqosvoy9Qd+BPjoV/4uGVT7Il8Pd3mTj4Aj7d+6xjEpE/8fAb9XDFDe7ZgiIiIiIiIiIiIjFKsADgcnp8DCdHTuVLsykm3+WqK+DT+q2OAB1APU3H4IKUtJClrfroAxqB9LF/YMlAs9E2cBDpfMrf/hYMOAJwpIlPuYCUPqGLY3Xq6sGcxMtXdpktIiIiIiIiIiJyNumRlpbW6lwRGRkZHD58mBMnTphNXdNlK/l81mhO4uVrC26OPcp58YOsuONqLjCX+71fwbQNzmw+e+y+sRfz1toCRwaf0yh+Nu0+runl//vTkL6jryvhgcERt0jdG3fz8H5zaWSn8vbw2UgP52xbzFcrlpvNIiIiIiIiIiJylkm4AOCX0+v450VbOO/X0+hhNrbKGrOv797fMsNRAhxVqwFAh0CA0REEjOffx8EKBDbGFwAVEREREREREZGEk2Cxocf4MhPOeW9TG4J/tL3UN1YfPcmMtbtDS3tPs9Q3kh6793IOWXw5zGwREREREREREZGzSYIFAE/XVn5RXQ9X5LEi3gk/3Ax8NGw9o7/5DS7gU5qO2As+epJN70P62BJN+CEiIiIiIiIiIu0uwUqAH+OLBVM5dbrj37mOBego23Vttx3bzVOOWX7Dx/irZ8OyR3jesQTXfuHrios9DmKPl9I5VxOBiIiIiIiIiIictRQATFQKAIqIiIiIiIiIiEqAE9gHB9s4DqKIiIiIiIiIiCSShAoAnsrL4wt8fGX3WZ79B4CXHk3wxfUraTXFU0REREREREREElZClACfytvDZyM9AJyrkleHmZz8cRGfpwBNWzjv19OUFSgiIiIiIiIicpZJiACgiIiIiIiIiIiIuEuoEmAREREREREREREJpQCgiIiIiIiIiIhIAuvWAcCMjAzOP/98c7GIiIiIiIiIiIjYunUAUERERERERERERKJTAFBERERERERERCSBKQAoIiIiIiIiIiKSwHqkpaWdMheaMjIyOHz4MCdOnDCbOlVX3S+JVRZL1s5m5JGXyZlVZTYG5U5jXWE2DWvmMrvEbLTNbqYuH1aNT+Yhs81205Vr+PnAJKCF7RsnU3TM7NHN5T7PnMLRpOBlfU4u1WZ7Jxo7bgI/yfbQUr2B723ymc3iQscskfTjiQfH0J+DrHtyM783m8Vd6lX8cdpQkgILfOxauYFFDSG9ovAwb8YEhnn8f0f490PGUJ7bL/h3/Wbyyw46e5wR90y6k9sv3MOvVrzDG2ZjNF1k/2Njn5NPuvI+djD/dd3Kebpn0p3cngYHKl/gp2+bre1pBnlrixie7P/bx87iq6moDO0VUFDJ/MlZ0LyF5XfchflycsourWVipmNBzSoWzip0LBDi+Hz62NP1TCWV9PvPM5tERERiogzADlfM9Kpa5iyaYTZ0utRFu5lfVUm22dDd5LSwJ78J3196Rgz+cdlT/HwgbN+YR2555A9XiS5hzrmIJDZnkOTJF+yHS/AuKh+LVtj/tjJyoIW3/dvYwK7uGGtv9/3vxxMP3skfxwUip9IBWo42m4s6yQoq7shgYU4GC9d4zcY2s4J/PnYW2+vOyVDwL4JX351Mbnke/7Efrr15DYt7mT0sD5X1wde/gT0LTppNIiIiMVEAULq5z9g49wieA6kMXXCO2Rgw+4pMOPRyYgf+Ku9iaU4GC7tY9h/AG0esLzofHmmXb6dnBR2zRNLMJz7A9wkHzCbbPZPupPxBx2OSI6PrLDR2YDpJ+Nj15yiBO5EEduCoD/DxyUdmSycrybWCeVGz/4oZnAnUVETOJDzTvn8/T5c/Fvr4w50MMPsBAx6eF9rvyZvMLgCMfzJ0fcUPO9MdbTfeSXHIdu9nvNnH9uq7L+Mlid4RAoBUJTG0PAXPt99n42yzUUREpHUKAEq3NnOBjyxSWBW1HGIcX1cig4h0SR7mzbiT29MOsi6Q6fYC+X9LUwYWzbwfOcIg0j01+PjQXJagmhrbL6PwtP3X09yf/5Dj8Qq1nmv4kREEHP/kY/xoBOz4jd3vN2/hy7jFCAJmcu8fHuO2jHpe9K/vpXo8I2aFBgG/fz9P/+ga2FFqb7OUHb40bosSBARI9YwzFwUtS2bVAcjKb+Yxs01ERKQVGgOwg6Qu2s3MUZG/vDVtXczSeSsCf4f1dx0nxRynJXw94BwLzs85Jlwx06umku7oHqqN48cVPEDV5DTHgnpW5zzFbx1LAO4rfZwp5g+kNeYYgDksqxpPlmMJgDdsDMDP2PhyA33/ckXU7D8Yx+Kbf8a1vjJytxvHyi/qMXPwj33j5zxP9jpwOSfW+cUYV8c8F+Y2rfaUrYtZemhqyHbr1mTwnP9YmPseNi6PuR2Tf7t2v7B/H3zeIdvFsW3X6zUe/jHS/MLH6nIdH8suE/wwbIwkc30Rxl6LZeysWPo4xmvycx27L2xMswj71QnMsZrMe4t1DTdGvkbnrbDWwSqWN+ZZ97OaVSxc3S9wfVrXj3Ufy9q3mM19i5iYaW8rcI0b40+Zr7mw14l9XzwSui2cz8Feh/mcCDxvc53teW23wr6+Wh3nK8K17vq6cIwh6ed6PcY0Rl4sfWK/tmN6nQT2v9l1Hf7X9yXGv436b4aMoTw32X3fAyKNT+c/Bi7PyX7eRHge0ZjnCABfW88lUfbfIcr9zNyOKXy7sd1nzXMOke+jkcV3zs1thu87Mey/43j+2RNyfYevz1xXhNcJRHwuXUJBJfMn93UfA9C8F0e9N4a+N7gzP9NGGXuwg+7HAx6ex49GHOXF/Kd5GTtb70fX8PFLD/H4fzk6fv9+nr61Nzt+s4hnXnP523V9mdz7h1mM+PgV7n/wVcfKbmJu+S1ctKOUwiU1juUAMyjJn0Tq/l+Q/+4mo80hp4U9c49AtM+/9/6SsokZtOz4Nf9W/KbZKiIiZyllAHaQhnlX22OerKLO/iIaGAMlJ8PxgWgGeWtr7S/W/vZV1GVOZf7a50l1rDO7dA6UOMZSWeMlZVRR6PiCjiBUoF9xI2NKi+0OhTxnL1++1Wd/mXas0/wSHIvcaazL3k9Ozlz7sYxtzWlMqXqA+wKdsliy9nGm9KlmSUi/kDVZ66oaT+rWZcH1FVdz3OgGwOwTZHEBe9+M8OEnVq0eM0vqot32B2PjPPn7VW7C2wwpg8aFnDeYQfYgT2gpTO7zzLE/HPu3ub4mi4ku4/OljCpi/mQC52n5Vh/pk3eTl2t3CJT+ZrDe/CwJcZzzQiq3+iB5MNn+dduys7MAL3uNSVhSbxhsBVsyh4Xtd+zsL04hY33t4cKJVzHW7BqLIWMoD1tfPUOMksp7Jt0ZCLw4s66eGBLsM3bcBDto4O+zmQNpY8LKM60vm6EZXBt7X88854XgCBQEtrfyE27uAqWewSBY8LrY3HdO8BqLR588pvStsMaSysxjTsFgvMWL2dkM6dmO19SgOYxpXMzyrT5SBs1hzmRYn7OKOjxk3WDf03KfZ072Lse1upidze6vEzKnMr9wMF7/69O+P04vAEpWsdP1tekvU9sVdt9rn2s7dpf0iRx4iY+VUfiTbBzX7QuUMjT8enxwAsPYw68C1+2bcJ3zddePJx60AyB2n19Vw7BpE8LXFcO13errZMiYQAm0FYjqx+1doizax6JtB4F+DHHcH3CUKr+7P75Azj2T7rQDV8Fjsa7e7OXSb+UeyJ7QpuzQ1u5nb2zyn7/NHLCDXIHz+eQLocGq1Kv4ox3ECu5/P25/cAz3BDrZ2a0XOq+x9hqnMLJWrzNi3X9b2hjKp6Xzrv+4VR4kKXuC472ind/Duip/6W+OdT8PZ32enV9Vy3z7R8eUUUX237XMr3J8bqGY6VX2DzeBzycwvNDZJ+hM3Y8HjM7EQz1vO4N/ZHLvDWlALwaMtn4lGz84DXw1bHEE/+AmbhvRC0hjyPeBG69lgAdq9zqDfzDg4dFkAJ4B17qWH8ek6nz2NoNn4Almmm22uwdnAJA0YCzXm40iInLWUgCwsxVMZXiyj53FzsBbIc+t8ULyaHILgl2rZxm/jLp9qc3qSwo+vK87fnGtvIul7fiLaZjKldweksHn5eHKeiCNbP/+F4xnZPIxtpWsJMp8v9w3JZuezdX857zWy0Yeu7oJmi9gU7QVxiKmY1ZM7igPTVuXOs6BfZ4y8+wPrCuo3ucSQMsdR1Yy1FUH15c9ZTQpzVtY7fhlvHrWKurIYow5YUzzFpY7ArMNr++lCQ99zBTJduBfdyAAA4EgSdPWVWFBEqu/ewAlZqkeLgEO/M2ZDXKQn8Y7EyZYXzhH9nPJLjnIT51/p17FzW6zK7692fF3P27P9tBS/aYji+MgP608CGnOYIqHKy4E6utDMlB+X2Zkf1x8YXigoOEdvhdXFkxHmEFqn/BzGHa/iVUyeFf7r3UP7HO8Zvr0C9yrUpIb2ey//pM9NK0JXuMpfe2LO+x1uIKKSi+QxWDHvdHiZX2OY59LdlEHpFw+I/Jrs2AY6fjYGdjfoHa5tmPx9h52+SApewLlDxqBtbYYMpRhnvDsozc2bQ7NqL1uKElh2WY+FpUF/x47bqg1c7HjGn1j05vs8nkYdp0jGBfTtR3D6yQwmcUL/KraZ2dkBYM48WWMtbO36zkA9P+mMwjpYWymB+r3RMj0iiBw/wnPlgvh1q/hHUqrfSRlDw0PVEUV6/0sNv7rp9QRFPx92WYO0I+b/cFJ/7W4vi338raK4TqLdf8DDrLOOQGNfS0Egvbt+h7WnTkmE3H98Tt4f05dlEc6XtY77u8N85ays9nD8CmhP77SUffjG+/k3hG98O14xcr+AzL69ALfJ9QGOt3E3PJZDHjvFXb4wNMnDcjk0ouAjz/kPce6istvgZdeoRa4KDUT+l+Ih2MccQz8Ov7Jx/jRgBpe3HEMPBdiheicajga01jV57Bp/wWQ/EVYtYzfH/Zaz6LlvTdQ/p+IiPgpANjJrMyqRhrML9ohX14jWUHDEWORt5EmPBF/RT1jvEdDsvbuy06DZi9V5vMMkUN2Jhzftz1qkNBykn4XAR+fy3KzydRrHIN6gff9CGUosRwzO1AQEiQk+G/9wbiGeRWhGUyBX66d2XN2QG3fJmMAbS9Hmh3BD78jB0P72Rl/IaW47cUtizHSc8eRfXg6AWZ7PKT+uXeGZN+1SWo/rvSYX8TCWVk7B3k7WsnlkDT6m0ENgI8+oQUPF17sX+Dj/U/sLJFoGUr2vwvLnup09n3Emc16Opr3Uu14nTcdcrluML/I+TjSeszf4m20vgiamhs5HLLAynz1Z1u7Bbezs7PC9jegPa7tmNgz1VYeBDwMm2Zlu7Ulwwvgnm/2A18db0QNSPVjSBq01ByMEqDwB7dCAymB6/1CTzC7KaZrO8bXSZd1kLfrgbS0YOAtxvuNKab7T5R+1gRByVwR8Vi7iPl+FotI14812U1Sb6umM7Zrsb3Fcp3Ftv8BYZP3HOSnzozI9nwPOyv4qyLMYJ79XuT4oSigve7Hzgk5fnQNntpXXMpwbd+/n6fLR3PkNw9RuMQlPdc24OF5PP2jC3kt3ygbDnETc8sf48Yjpdx/9wuOAKNpE//wQc+Bk2htjo/lh78G/JN+OWaL7Zl/Z9KkSSr/FRGREAoAdgVhX1yDQoJBuc8zJ1BKYT2cY3aB/0OSVUY3vNDfz6Vcrp3dV/o4VVWOR2E2Pc1OZ1qvRynPr6ByJCwtz6PgA7ODLYZjlnp5Xwhptx8h4wYCFLK3xhlAsz7ohmTP5fYjJaw0ppb5VaHjO3YOO8PKkSmVnZ3VwTP5HeSndllY/1x/uV+0QEIUdiZSa7Mm9u/tcflSF2psn+SQgEzgETLOmeX3ZXbGUlqwhDEsgNPwDt97cjMHQtbpUm7WCapn2eXhmVMD12PI0AKdKLu0tddcjCrvYnPIa9MKxNdVRpvJ8gwKZL9Zr4Wk7AmUz4i3hNDOfvrEFyWwF8xYij7DdDIXeuxAivP6f9BlPLcYr+2YXidd2O//vIcWRxnw2IHpJPn2sK6VQF5b9e/tUgb9oDV0QbziuZ+1yr5+rKxV5/qcY0V2nlavs3bf/7a9h0V//SWyLPok2z86tfaZtr299gKFjolAXuQWni6fx703hnbLeHgeT98KL+aHjvFn8mf0/cY/hqCb/v7swIciBxsdlm3PI3fjUcbnV1CZ/1SrgUAREZF4KADYxQVmUHMOgOwYp6u1Md8WrrHK5VzHzGon1sQex9hW7B/bL8q4fWfSsUfIL88jdxvMya+g5DKzg1P0Y9ZwqNEeoDp47J0PZzZedbUjgJY7jqxks7z4IE1hpTGOx+n+wn26SnY5shjtIImjfLlj2FlQT1pjXLWeTRRBjNksB476wHOhY8D2cFaWjS9kHDXnw5ywITh+VjCAEx7csDJH/ONIWV/uwwMlnSE4bqk1vlPY+KKdwBqb0HjdFW9xzwCMQchrs2AY6S7jWnY+67Xwq2ofeIZye1wZRS7ZeW7sjKXo4w5a2VCEjGvmeISVN8Z2bcf2OumiGg7yrs9fBmxlSIZnkbWfA0ddyqADj0gTTLiL934WlX39mGMEBh6dWapti3qddcj+t9N72FnBqnbA+DwbeJiTkHWglx98hVrH2H61R46B5xpuCwvqpdHHA74j9UANhz8GMm7hNl7h/rtfcJQCX8JFwMcNNXDgE3z0YsStmbz3m9DswPBS46DZ1wZ/uM4tf4BlZgcREZHToABgh4tQ1mkL+ULqZJRdWmWk7mNVRVWSawe0+pJqbMMKaoUvD3NDEc+WlVFW9kvuNtvssl1q/szDUTLE/t54DJJ78w3nwoLxjAzJeKvn42bo2Tc0veS+KW7ZhOdw8GPgoi8iDoAccGwT+45B1hUxBjPcjplR6htVySp2NlsBtNQbBpMSVmIY/ZroSLGdc2sykJRB40htLUjiz0ptj9JRv4Z3+J79Baq1QJ5VIufgL8UKGacrnPVlOHxA/xAxBhPD+Vi0wv7SaZaSOb292Q6UxFnK5xT1tdlWK6i4ww4CtnaNFgyLMrv06fJP0NGO2aeO16aV2WqWoDl0xLXd7qxSRicruJ3O2KjXlF3qmNkvSqAwxmCim5iu7RhfJzGzS5Y7lD0ZSFoa96T240qPS0ltDFxLeO3x/pxc+7VVXPezCKWwAa21W1x/aBkytI1Zdm5iOedu11ls+99mrb6HWcHyuIKukXTIe0BHi1LqG8kZuh+/t6UGH1D7uiOoB/D9K8ngGO9tsX51f3lvPXCMHS8aE3w4JxF5bTvv+YDaLUYW4U0MyQDfe9tDtwHADK65HI6/v4nQNYebeek/ga9xMNKYOf5r45kiTQIiIiIBCgB2OP/4Wv6JIgz2F9LhBc4Zf4uZPjm07NIK3DjHr7JmWzPLJVIX7bZmvXSIOM6gf+w7lwGXna4fNcAOsmQw5F6z1QrakTkwOONvwQNhJcBVr3s5Thp5i+yAQu401k3uzfGQmeS8VO07BpnXscQ+VjmLHmFKn2Ou2YQP7U6B5E8ZF2n8kxjFdMzs8sGQ2XcjsiYcSBk0ldxBHpcSQ7vMNnPqmc+wivGcN7y+l6bk0cycnOU6+Ydfu8zMN2RMWAaQf2ZNZymvGdgYO26CPVOo00HW2aVfoevsxxPO8aDsiRf65xoZGkPGBMdwaniHjfUufcL04wmzVNMeG6zlaPACHzvOOWuk5Z5v9gOaeb+t6Q79Lwy8NnMK2/oRv5jpxozj/olrAhnIgXuQY/KNgkrmT24lQHha7CwR57VVUNn2EmAIvjZHFVmZhVF+UGmXazsGbteFf8IGnOWlYcFte+ZRx78CeGPTHrsUNzT7buy4MY7r2A5keYbyk5Bx0jzMmxS8ln//5z20hPUJ5/Ycwq/t2F4nsTEDmB7mzWhr+Wac3q7nAP24fdpQkuKd/MPv7XrrHAUmUunHE9OGgs8IJr69x5pwxTiXbRLz/QzHOHqRJgfxB0LN+2yoN/bX0eKcVCP1Kv6Ym0xL/DHTOM55LNdZbPsfsxjfwwL8s1238rqKSbu8B5x51au3WJ8xYgzodcz9OJN7/3ALGdTzmr8097UXeK0WMm69n/H+bjfeSfGtafh2vBAM5P3XK+zw9WLEvXcGZ/L9/v38aEQval/yZw7W8Mzr9ZBxC3O/7+9kb9P3Fs/EUA4c2UnGDfwUms8l0vC5gc/unm9xe9hndxEROVv1SEtLO2UuNGVkZHD48GFOnDhhNnWqrrpf4WaQtzZ0fLemrYsDg9O33m5JXbSbmaOCHzLr1mSwN7uWiX22sNxRMmGVzQW6WbPIRiqpCPsS72W9Y8ZZsH9F/OG3SKKWFyf9O39wtgGQw7Kq8cGZyJqrWVICPyzMpmHNXGb7s8cKHqBqsj/FoZ7VOU9B6eNM4WVyHLMIWyXF9h81L5MzC5ZVjQfnugD4jI0vN9D3L1cwdME5zgbDOBbf/DOu9ZWRu919QoJYj5l5DiBCX3/Jttvx9Av0cfKxs9g/U14x06umkl6zKmpZsOs+2dyuo5jOeeCadO6PC2dpepR9bE14MO8g654MnyHznkmO8cd8e/jVCh+3PzgGzNl8h4wxxsmKYX3Y5Y5G+Vf4vvm37SiBTL2KPxpjaYXNMOy2PXM9cbueomd+zLc80LLj120f7NvlWqxbEz7RTOi15mV9zipS1xaRtc+6zrJLHfcj+zqz1mNfT2xh+R2byF5bxPAj1jVjrRP7OjOveftv/w40b2F5CUwpHE1TYP+c6w5/zYbxP1e3161TO13bsQi7LuzyxMAkA37GdXag8gXW9ZnATzLrjOsoPDgSy/qsElGztNQ90Ghe32HPwe3aDtte+Hr8rNdds+vr1hK6Xy3VG/jekaGU5xL8Ny7bC3DsX9i+O7jtn7+/W1vMQvbNOu5vDHQ7lxH2z3Gvcm23mfsY0/0MYruGXI+vcQ2F3Iut+zCT7uR2wu+1rYvhnOO+X+ZxAPd+oftvHwPcjk+o8OPq/p4DjmPi8n4Tv3Z4D3C5/wc47pNhn5Mcwt8vrHt3ittnkADj/m4LX1f73I8HPDyPH43oFbLMt6PUdVy+8U8+xm2OKXrd+2Vy7x9mMcJx2mtfcpkI5Pv38/Stjheo7y1+4ywbDjGDkvxJpO7/BfnvbjIbg3Ja2DP3CI3ladwcsUb4bn5ZdhsZnMa1ISIiCUcBQOnWZi74iKJvw5bHL2ZapDKIGAKAYoozqCKd5vrCZ/nxiCRq10/i358xWyWM/UWSqF9MRSKzAm5RAjwiZ5DeAxJJbAHAx56uZ+pFfVg8NYnlZqPD3U+UcVt6C3/9z39j8etmq4iInI1UAizd2vIFHrx8yuhZLVHGAtzEP9pUcnQWs0tAw8uXpUu5oYiZI5Kg7kV98YuRVUrmZbOCf9Im1riLLdV7FPyTzqf3gLPP7Gam9gfvq9GDf9xQRE46UFel4J+IiAQoACjd3Hnc/HgffMlHKHr6M7Mx4O++Frh8PItDqz/EVTHT7VKbsDIc6SKup+iZMsp++C3Y8Wsm/TS8MF9cFFQyc5SHujVmybtILDzMmzGG/r49lJrl1CJnlN4DEtFNV44nixb2HYqQ/ZfTwp78Jnx/uaKV0l/r2mhcP0nXhoiIhFAJsCSG2c3U5cOq8ck8ZLbZbrpyDT8fmAS0sH3jZIqOmT3Ocs5xgE5jnB2RrsY5dqHr+FIiUTnGnnMdL09EpO2Cn0/Buy2Pgg/MHpbHnq5nKqmk33+e2SQiIhITBQBFREREREREREQSmEqARUREREREREREEli3DgDW1tYq+09ERERERERERCSKbh0AFBERERERERERkegUABQREREREREREUlgCgCKiIiIiIiIiIgksIQIAJ7K28OJBXWcWLCHk5eZrSIiIiIiIiIiImevhAgA9qgYyvkL0jlvG3w+S0FAERERERERERERv4QIAPr1qKjgXDycutRsEREREREREREROTslVADQ71TfmeYiERERERERERGRs1JCBgBFRERERERERETEogCgiIiIiIiIiIhIAkuwAKCXHk3mMhERERERERERkbNXggUAl9PjYzg5cipfmk0iIiIiIiIiIiJnoQQLAMJXnkvn/NJGTi6o48SCjQoEioiIiIiIiIjIWS3hAoBfTq/jxHfg3AXpnL/g5sR7giIiIiIiIiIiInFIsPjYY3yZCee8t4keZpOIiIiIiIiIiMhZKMECgCIiIiIiIiIiIuKkAKCIiIiIiIiIiEgCUwBQREREREREREQkgSkAKCIiIiIiIiIiksASKgB4Ki+PL/Dxld3LzSYREREREREREZGzUkIEAE/l7eHEgjo+G+nh3JeGcs4HZg8REREREREREZGzU4+0tLRT5kJTRkYGhw8f5sSJE2aTiIiIiIiIiIiIdGEJkQEoIiIiIiIiIiIi7hQAFBERERERERERSWAxlQCLiIiIiIiIiIhI96QMQBERERERERERkQSmAKCIiIiIiIiIiEgCUwBQREREREREREQkgcURAJxBSX4FlfkVVF47w2x0OMnKVfXsWXDSbBAREREREREREZEzrA2TgMygJH8SWYfKyN2+wmy0zG6mLr8Jb3kaNy8zG0VERERERERERORMiSMD0G8Fq/e3gOfr3GQ2+S1LZvFfLiAr/yNW5piNIiIiIiIiIiIicqa0IQBo69Wbb5jLHJYv6M2W5k8ZPauFmWajiIiIiIiIiIiInBFtDwC26hymvZoCyUeYOttsExERERERERERkTOhAwOAwLLz8QJZV39mtoiIiIiIiIiIiMgZ0KYA4Ku+BnNRBOex6wBw0RcqAxYREREREREREekEbQoAcuwox8lk/JXjzJYw3sYLIPkLsswGERERERERERER6XBtDAA+Qn55Hi97fkZlfgXlMQQCRURERERERERE5MxrWwCw16OU51dwzft55Jbnkf/uJrOHiIiIiIiIiIiIdAFtCgDedPkgelLDWx+YLeGy+n4KzefiNRtERERERERERESkw7UpABi7zxjWH/j4XJabTSIiIiIiIiIiItLhOjYAOPsEWVzAlrLzzBYRERERERERERE5AzowAHiSlTc1wQEP06rMNhERERERERERETkTOiwAOHPBUUYnK/tPRERERERERESkM7UhADiDKQOT4NBbLDOb/GY3U/TtT/GWX6zsPxERERERERERkU4URwBwBiX5FVTmTyLr2A7+Y/sKs4PNKv31/eUKbo4YIRQREREREREREZEzoUdaWtopc6GIiIiIiIiIiIgkhjgyAEVERERERERERKS7UQBQREREREREREQkgakE2KGgoMBc5KqkpMRcJCIiIiIiIiIi0iUpAOhQUFDAU//1lLk4xAPff0ABQBERERERERER6TZUAiwiIiIiIiIiIpLAFAAUERERERERERFJYGdNADBn0SNUVT3AfWZDq/7JpnXvs+kH5vK2GMfimysov3Kc2dDNJdLzmkFJfgWV+RVUXjvDbBQRERERERER6Xa6fgAwdxrrqh5nWWzzc7Szk/zpuUayfL154XdmW/xmX/szru1Vw8vvbjKburlNFO2roefAn1FymdnWnYxj8c2TyDpURm55HrnbV5gdRERERERERES6na4fAOxEj//6MNd5PPxp+gWUmo1xuunKNUy+vIXtGx9gmdmYCD54gP/Y30LWyDUs7mU2dhO9xjGoVwvb9yvwJyIiIiIiIiKJQwHASG78lP9fBnhf9DDXbIvbDKYMTOL4/v9D0TGzLXG8+u7/YfuxJK4d+Sg3mY3t7Lxb1jBy/lN4zIbT0as3Pc1lIiIiIiIiIiLdXI+0tLRT5sL2kLPoER4eFUwFO751GbfP8zp6ZLFk7WxGJgeXOPvcV/o4UzKDbSbvmrnMLnEuMdd3jG3Fj/JwpfWXtT9HWZ2zn+yq8WTZvZzbLCgo4Kn/egqAx3/9Pt+9qDcLjey/B77/ACUlIRtu1U1XruHnAxtYUx4l+6+gkvmT/XsF1Kxi4axCR4dipldNJWXrYpYemhrSt25NBs/Zu5S6aDczRzWyPmcVqWuLGO4/Hs1bWH7HXTQE/pW/ryOEZm6zoJL5k/uys/hqGqbUMjFwPrysz8mlOtgz6LKnqByZiXdbHgUfmI3taQbp8ydxCS3U/W4yH7bHti57isqRqWzfODmhA7UiIiIiIiIicnbpgAzALJasfZyHR8G24rnk5FiP/2Q8S3KDve4rnQYlwfacNfX0HDWbdYuswNZvZ9nLi6s5bgf8An1zjOBf7jTWVc1mJNUsCfRZCVOmkePoBmlMqRoP/nWtqafnqGkh+2X5J8MzwPfueadd+gvjyLkiCQ69FTH4l7potx1oy2BhTgYLc1ZRlzmV+aXFZldSRhUxfzKsz7H6Lt/qI33ybvJCnkMWE6uKyNq3OLi+5NHMDKxvBnlra+1AobHNtc+T6lwVHoYX1jKRVXa/xexszmJiWD/bB2/hBbKu6OgJNFZQt/AX1DUlkf6DCtK/ZbaLiIiIiIiIiAgdEgAsGM/I5NDsO4CqeU+F/P3bWaHtlLzMtmboOehaI2jXuvumZNOzuZold6ykKrDUy8OznH/bS52ZgyX78dKLq25wZN4B/OAEWfwLb//5nNDlbdFrHIN6gff9SOPKFZM7ykPT1qVUBI5HIc+t8UJmnhHYszP5HNl3Da/vpQkPfYynULcmg6Xz/NssZG8N0KefFbQrmMrwZB87i51ZfPY2k0eTa0y40rR1sSMzcAXV+3yQ3JdLQ7vZVvDWIcDz9TaUAY/jkjkVjJwf4THnUc4L6b+JD5fmsf8AXDKhgqtuSYRZiEVERERERERE2le7BwDvy06DZi9VzuBeTLz844i5LBY5ZGfC8X3bw4J94eqpjqF6d1bq58BXOfia2dIGvXrTkxaORiopLRhGOj68rxsBQm+ja2CPIwdDynipvIulOcESYIuPI85qa6B6VgYL7RLg7OwsoJEG8xyV7KIOSLk8NHuv6VDovjXMu5qFkUqAgb/7WqBXb75hNrTKCuhtWxjhsfQRPjP/CeB7Po+3trfQ89qfMfKutmcezr4iE47toyrSuRIRERERERER6YbaOQCYxdf7AEc+bD0YlzuNdVWPU+V4RBvzL6LcS0gFGg4ZEa9uIvXyvoEy2/lVjkfhaFLMzu2puZHD5jJbSl8z6tiN9B/PJZeZC6ObfW0FlfkVXPN+HrkbH+FVs4OIiIiIiIiISDfWzgFAO4uvzyXRy3hzp7GuMJueNS+HjOu3usbsGIPKD2kAUi/vnkGrhkONgM8x/l/oIzSz78xoauysYGq8JcAWz10VXHNtEse3/4JtC+OfEGTZ9jxyy/N464oKKm/u+BmMRURERERERETOpPgDgDcU8WxZGWVlv+Rusw34e+MxSM4ixxy7ziHnhix6coxtq1vNE4whwFfPx20cOzCS0oavAp/T70azpQ2OHeU4SfQOTogcKlKpbweqrvZC8mCyzXMUqRw5Tt/wJMGxo/zdbGhVvCXAVsBwYH/4cEMe77yyKaQ1Xsver4Feg8iJdK5ERERERERERLqhuAOA148aQBIAGQy512yFqnl/xksvRhY+wH2O5TmLHgjMtlt16CiETL5hzRzsXgJsB/hGjQ9ZX5CXhyvrITmbh0udIcAslpSaswDH6Hfn4+V/GHLdSbMlfsc2se9YlFlxK+9icw0uM/l2oJJV7Gz2MLzAOZNvMdMnZ0FNhWMykraYwTWXA75/dHAp7QzS5/+M9JQW6n6XR91fzXYREREREREREaEtAcA3t75HCwC1vP2M2QpQxeycZWxrTmOKY3y/H/JycNbfkqdYsvUYPUfNtttnc1FlpBJgLw/f8TJeQte3zDlTbclT5BRXczxzvGNMwWmwOnwW4Nh8jZ214LnyM2aZTXHbRNX7LXD5Ncw2m2zVszJYvpXwcQDXOgN07WkFFXcsZiejmRnY3lRSQmb7baPLriGLFrbvP70swtacd8t4LqGG/W0o+RUREREREREROZv0SEtLO2UuPFsVFBTw1H89Zf1x46e885OjsP1Srlp8TqDPA99/gJKSeAfmm0FJ/iSyDpWRu71jA2OdaxyLb/4Z1/q66fO87CkqR6ayfeNkijQTsIiIiIiIiIgkiLgzAM8ar13A/1cLnmub+NNpjwW4gtX7W+DySZTEOUNtd3LTlf+ba3t1fPZfhzl2lOPmMhERERERERGRbk4BwCjm/vhS/uz7H677iY/HzcY4vfruZNYcgqyRa1iciJNMXPYUPx+YhHdbN86eO/YPGkji2oERxmsUEREREREREemGFACM6hy+O70vXnwM/4HZFr9l23/B9mNJDLp8nNnUzY1j8aBMju//BQXdejy+FRSUl+G9fBKV+RVUXqtAoIiIiIiIiIh0fxoD0CFkDMAI2jYGoIiIiIiIiIiISOdQBqCIiIiIiIiIiEgCUwagQ0FBgbnIlTIARURERERERESku4gpAJifn8+bb77JkSNHzCYRERERERERERHpwlQCLCIiIiIiIiIiksAUABQREREREREREUlgCgCKiIiIiIiIiIgkMI0B2AVkl9YyMTP4d92aDJ7r4HlG7it9nCmObXrXzGV2B2/TdCpvD58N2Mt5v55GD7OxG/tyeh3/ZBXnP/eQ2SQiIiIiIiIicsYpA7ALqJ6VwcKcDBYWb6HJbOwgv501l5ycueQUV3PcbDwThm3ks5Eezn0zsYJ/AF+p2sI5mVP5PG+m2SQiIiIiIiIicsYpAChn3mUr+fzWLM7Ztphzd5mNCeCDaXz1JS8nRxbxxTCzUURERERERETkzFIAUM64L3NGc7JpC+dWLDebEseum/laDXxx60a+NNtERERERERERM6gBBoDcAZ5a4sYnuz/28fO4qupqHT2KWZ61VTSA3+H98kurWUiq1i4uh9zCkeTYi93G5fPHLuvaetils5b4ewS0zYDcp9nTuFomly25Ze6aDczR3kCf7tvMw6501hXmE1DxDEAc1hWNZ6swN/H2Fb8KA+b+1/wAFWT04yFAPWsznmK3/r/vGwln88aTY+X0qNk/7V2Lu32I+HnKfR4WMc+Zetilh6ayvzJwWcRdj7tY+9fD3hZn5NLdeDvWLfpYD9Xti3mq4kc7BQRERERERGRLi0xMgBzn2dOVRHD2cLyHHs8vZylMOV5Uv19CiqZbweDrPYMlm+F4YW1TC8IXR2ZU5lf2JfNgX4+0ifvJi832MUK/nlZH9heBpv7zgnpE9c2Y5BdWsvMUY3BbRZvgVFFzFk0w+zaPgoeoKpqPKlbl1njBebMZclWGFn4OMuc+28H/7xr7HEFc17GC9BczRJn8A84dfVgTuLlKxGDf8VMr7IDbSHHLPT4g/88DcZbbB+PNV5SRhWFHduUUUXMn0zguJnnM3XRbubbgVf/NtfXZDGxqu3bBOCDTXylCU4OGEerUXYRERERERERkQ6SEAHA7CmjSWnewvI77qIhsHQFFbP8f88gLzcLalaFZGo1zFvKzmZIz3UECsHOOAtmfzW8vpcmPPQJJJDNILUPULPLkSEG1bOMLLW4ttmK3OcZkwl1axxZaZV3sXqrj5RRU8kO7d0OsliSmwY1L3P7PG9gadW8lWxrhqzcaeTYy+7LToPmav47kFFXxX9vPQbJWeSEBNBm8uUAD9TsinjhpS7KIx0v62cVBpZZx8zD8CnFIX2tLD3HMS/ZRR2QcrkREG3ewnJHNl/o+Swmd5SHpq2LQzICq2etoo7T2CYAy/nKez5I6asAoIiIiIiIiIh0mkhxmG6kmMGZ0LRvkyP4Z8gdR1YyNDUGA1mWFVTv80FyXy51Lm7eS7VZ4hpiBQ1H7GywUjNAZIt3m61IvWEwKXjZa5TpNhxqBPqSamaqna7ca7kqGY431hsNXqr2HYPk3nwDgCy+3sfoEnCUf4QcxyxOpcA5R8xj4jeD7EFWgNAZWA0c7z79QoOmzY0cdv5NIc/lZISX4x45GHptVN7F0hy7BLhgGOlA0yGzhLeQvTWnsU1bj0br/Jy6zGwRERERERERETkzun8AMLcfKa4BnHCR+8QfQKueZZWSkjmV+VW1zK+qdS3Fba9tXtrXA2Qx0d5W4OEY164jNByKFKzrzddzAbw8XFkPydl8J1AGm8N3RvWCmv0h5b+ty6JPsh1YNZ6nc6zF9ucjYkwyzkCtiIiIiIiIiEhX0/0DgJUHaYpYghmrRhqiZvy5a5h3tT1m3GJ2NltjzbkFAd3Ft83DjT67/DQ4Tl3wEWFSkQ4VzO7Lubw3AFmTH6eq6nGqqsaTVfMyObOqQv9Jq7wcaQZqguP/hTxCSrzPkLCMPxERERERERGR7qX7BwDtoFHKoHGRx9Sr3IS3GdKzzXLdSCWn8VpBxR12ELCvnZHXztuMu9T33l9SVlZG2TNFXG+2xaJyO+80Q1a2f6Q/vyxyBjmz+6xsv+OOiUJycuZGCP556dEEJ4ODKRoilPp2pJJd1OEh6wYzcBtDaXkMTvXtCzTS4wOzRURERERERETkzEiAAOAKKiq9kDyamSHj8c0gr9Q/0YbdJ3NqyGytqYvmMDzZx87VwQknYlPM9LXGJB5hY/618zZLVlkTYRRWxjThx92DM6z/8Qxg7A1mayzs0t7M8SEz/uYsmsbI5GNsW+0P8NXzcTP07Pv/b+/uo7Oo7/z/vyi2WpErQRFTK5uEpOINoCmiKyIKMUdyUDlZcClYVnC5MRxZK66VCvbwreA31Hq39sAKbNWqWL4C+Ylw0BNSVChUgUYR77oJSRarKQZJLhoXq8jvj5m5rpnPNdd1zRVye+X5OCfnwHw+mZnM/bzn83l/sqOV4rIHxcgbrm/MIlvVizvVFLMv29MCVewKK/NK7wjOBSsnK0fV2hEnt18w9qAnTYfUyywCAAAAAADoIL2ys7OTDlBaUlKi7du3q7Gx0SzqOoqe17wFI5UZmRDWnjKja2xphZEzr1qbXKPDSlLBylrd0N8YUdied9M6e+AI17To8qQ6d7kj6TLLNK1ysnJcNaLMuvb6mfnwatbqAdeouZLdAvCGXCn8Jz02Y6m2ewoL9WTlOPm3w6vXi4W/jubuK71DlZPcwT2jXJKKpuqlBQU6wz1NknRUb5b9Qve598G5a/TV7JHq9XKOTtnrmu7hv02i23emijcs1GUyR3422fPx2z6GrCXvaNaVoeiEmFGlgy7TJdDfCgAAAAAA0L7SJwCIzuEE/2Jy/uXrwQ1zdEVGbMDwm2l1+ntetb6z+Lp0aIIa1zfT6vT3s3bq1Mem0gIQAAAAAAB0mnSOv6Aj5J+pMyRVV5k5/6r1P3Hixd+q3Kneytffpy0zi9LH8K36e550ynaCfwAAAAAAoHMRAMTJqf5cf5PPYCGld+jmPLkGC3H5ZKq+/bKVH/Gr4llmafd37hp9dWO+er+5lK6/AAAAAACg09EFGCcvTg7A6nX3aI6ZE9HlRPE+fTl4f9p1kf1mWp3+rrU67dl7zSIAAAAAAIAORwAQAAAAAAAASGN0AQYAAAAAAADSGAFAAAAAAAAAII0RAAQAAAAAAADSGAFAAAAAAAAAII0RAAQAAAAAAADSWFoFAG8Z/4zWzHlGq6+60izyOnu+Vs+x6lo/K/TTs81KKRq+VccWb9U35vR2NVPFG2p1/8oys6AHmKXjP6nTV8WzzIK4ThTv07HFdTq2eJ+On2uWAgAAAAAApKe0CgAGcvZ8rf6nS3T6x1s09clb7Z9S/fIzs2IKzl2jr27MV+831/bADdpZVqn39modv2Khvh5ulvkYvlVfXiF9e2WOTls8TL0/MSsAAAAAAACkp7SKVz2/2QrozfzDLrMoYuT5P9Dp+kJvv/U7s6iVlunr2SN1vGatvr1llVmIVhmre8qXaXnkZ5FmXGvWkbT3Op36Zlhf35i8Rd83F+VLNVsI/AEAAAAAgB4nrQKAwX2mv5xMiz+XE8XF+lrV+s6z95pFaI1rp6is/Hrl1r6quSX3am7JvdpY21cj7vQPAvba8oS+3RTSV/+8RifMwohZOnGWOQ0AAAAAAKBnSIsAoJP7z/l58EKzRntZpuNXhJJ3/S2t0P2VtdEfn5x9WUveSVpHkgpWuupULtRlGWYNSSrTNPe8KitUYFbposbddKlC4bf1+PzfR6a9Mn+ldof7asRNYz11LVZXYGWO1PEgXYEBAAAAAAB6mIRxq+7C6fo7dcM7+sIslKQLfxEJDt4x5HRJ2RrvHgRk/I/M3whm+HB9rbC+9U78rr8FK2t1/6R81a3L1QOF9k/VcE0rdWpYA3nMuvKQNjnlhWtVlzdZ9294XlmROVn1bui/U6si9ZZqT3OkgqXoec2rnKzMXUsjy9tUk68bukUQcKyG5krhj97SR+7Jt12vESFJuRdonHu6Y+9enSLp64uWmSUAAAAAAAA9XloEAJP64OeRAT9+vf8LSfXaHBkA5FZN3dy6fIDfXJQvNe3Xt+LllSt6XqPypLp1uXp2hWv6iqLo/0sn67KMsPaUFakqUmGBnl1XLWWMVJETKHTqrbhFDZF6sQpuHqnM5p16cdHqyLSq2WtVp3yNWjLTUzeZa3/+/7R58+Y4P/9Pi8dK0r/qP2LKXD9P/Ks52/iuPUdnSTrcUBOZNPi+RVp+o7Tx5XpJZ+p7Pt2ApXv1rRpJZw1M0A0YAAAAAACgZ+oZAcB2YeeVO3xQvcwiW9Y1Q5Spau13B/8MBQX5kg6pocIoWLFXdZIyv28F7QoK8qXm/aoy63mUaUie1PT+NiNIWK3GZilzQL5najKv/eKfNX78+Dg//6zFv5ek/9K/xZS5fub9lznbgPI045llurP/Ts0tWa5XzGJDr8awlDnAPwB47hh9kymd8j55GgEAAAAAQM9DALAdfW9ASGo+pE/NAlOCOikF7YoGKlNS5pULvfkE4+YK7KrG6p7y2Rr80UrNdeUCTNm5a/TV4jod+2fplMU5OmWvWQEAAAAAACD9EQBsR58eCksZA/Q9syAFTYeqzUnxVRxUk6QmV/4/z8/sBeZvJNThXYBf+6sOS8q98Xrp5Xu14EFXV+CsMyV9rk9f8/xGYp9M1bcX5+i0/yd9vbhOXzNICAAAAAAA6IEIALbaKvU6nDjvXMNfDknK15DIgB+xqqqqpYwhKigyCkqHK0dhVb9u5fLzDSaWTjZa9rWuq288Hd8F+Pd6t1ZS+G1t/I17ep5GDu4r1X4Ytyvwif4hqemQf3fsT7bpW00MEgIAAAAAAHomAoAn4VvvV0uZQ/TNuWaJbcVa7WmWcia9o2J3gK+0IjoK8Iq12tMc0mWl7hF/yzRtUr5Us0Vb7Jx/Da/vV5N7II+i5zVv0gA1eUYBXq0tFdVS3mTNS3HAj67ilY1vKxy6VDPuy4tMG/fIbI0I1Wtj3O7Ay/RNXuJ8jAAAAAAAAD1Vr+zs7HgN2CJKSkq0fft2NTY2mkVdwI/04Jxi5ZiTJXu035/redeUkVet0B1DPouZ3jrL9PXiyTrx5lJ9e8sqszCiYGWtbojGs6SatUZ33Jkq3uDN09e0a6mecI3kK1mBw/snOa37qrWpsEhaWasbZMyv6HnNWzBSmdEpksLaU3ZJJKDYpV07RWV3XqpQZEK9NiYaCGT4Vh27cYC+vXKYevuOyDxLx3+yUF8dXqvTnmUgEAAAAAAA0LOkQQCwc50o3qcvr1CC4BPaV5DgXpA6AAAAAAAA6YkuwCep15YtOkUhffXPa+LmAkT7OVE8T19lhvXtykSBPTtfIwAAAAAAQA9EAPCk3atTVu5U78yR+nIag0x0qOFb9eUVIZ3ycvLWl70aw1JesY7Hy9cIAAAAAACQpggAtoVPpurbL1dLecP1jVmGdjJLx6/OV+83l+qUvWZZrF5bhunUN6WvZtfp2OJ9BAIBAAAAAECPQQ5AAAAAAAAAII3RAhAAAAAAAABIYwQAAQAAAAAAgDTWrQOAubm5Ou2008zJAAAAAAAAAGzdOgAIAAAAAAAAIDECgAAAAAAAAEAaIwAIAAAAAAAApLFe2dnZJ8yJppKSEm3fvl2NjY1mUafKzc3Vp59+qmPHjplF6Bby9eCGObqi8RUVzq40C6OKpuqlBQVqWHeP5qwwC21zmlVXIq0dl6F7zTLb2AvW6WcX9pHUore2TtLCo2aNbq7oec1bMFKZqtamwiJVmeWdaPSY8bqrIKSWqs368bawWdzldff1h9tAPTx/lAbpoF56ZIeeNotxcoaOUnnRQNeEFLdz1sV6buow9XH+H96nR1e/pze8tVIU0qKZ4zU8JB2oeEF3v2uWpwln2wfYZtMnTtGEbNeE+h0qWX/QNSGgFJaJ9sD1LJ20ybOGeQ1u7bmN7qcTrsdtcswGVLCyVjfkRf9fty5Xz8Z7L0zlnai0QvdPyndNCPA7aWWmVpRMVL4k/WW9it5abVawHdeatR9ryAfnadji3mYhuhFaALa7Mk2rrNW8JTPNgk6XteQd3V9ZoQKzoLspbNG+kiaF/3hG3OCfzv21fnah9NbWYhWVp2HwL6C02ecAuh775aOlarNKHnnB/kkxKNHwnn5s/+5L9WYh2oIV/Atr7xpnH71AgABIF+/usM/rzdrbvvGYTjd6zHiVzx+l6WYB0lLV7Fw9UJirB8p2qsksbC07+Ne0a6k178JcPdCjgn+StFql5cUqKl+v6u9PVMXl8WIWvTX195kK/ePH2jrHLEN3QgAQ3dyX2npPo0IHshJ+jZhzXp70l1fSO/BXcYue6KI3rjcamyVJf23snk+j3X394dasI2FJ4SM6YBZlXazn5k/Rw0PNgpAWzZyi8onulm0wTT9/oKSD2trOrQBSF9aS1VagK21b/8n14p+w5cdADc2WVL9PSxrMslYItEy0nwTXM3Q7iZ41pk+covL55s94Lcoya6LH6oTrcaJjtlMFfCcqKMiXVK0di+K1emsreZrxzDItL/f+3HObWc8y7hFvvbL7XE0fHddOUZlnfnM1zqwjafB9i7zLfWSsWcW2Wi9+0CKF/kHxaujJDC394+nKL/lMawrNQnQXBADRrc1aHFa+MrV27qlmkcsY/UPInAYAaHMEIrqFls+tlzYA3Uh4nx6NtK5+QS/VhzR86hQ9N4aHXKDVmg/pU3Nam6vRU7feq7kl0Z/Hdx9V7o1mENAKFN6UW6+NTt2X6xUaMdsbBLxtrpbfeam0e6U9v5XaHc7WTUYQcNwjy3TnCGn34/a8Hn9b4dzrEwQBJfU9Uz8wp7msWnymdjZ/oZGzWzTLLES3QA7AdpK15B3NujL+Dblp11I94fraEFO/Zq0emL0g+n9J0kwVb1ioyzKiU8z5SO68Bw53LoMyTaucrBxXda9W5j0ovUOVkzwJhfRi4a/1n64pknT7yod0s/kRo8bMAVioJyvHWbkIXKpjcgB+qa2vNGjAH5PlIhijpdf9VJeHE+Q1SLjNXMw8Ee79ZM9DPvvE2r/SnrJLtKXCmWruC3OZVnnmrqV64i+TPcv15L0w1715p1b90y2KNu4wl2NylmvXi/n96N8dk2/DWbbv8Zrc9IlTNKFfvFwlVm6jc9x5RczcNjF5j1y/0zjMU9ed+2v0mPG6K69Oj64Oa8L8URpk1+mIHCZBJLseWOWH4h8vi1bb+0zaVHZIoyJ5UNYqy7mG1KzVA7OrVbxhofLfX6odAxbqhjz7mhI53sLeY9Y81sxy5xrVuFYPvDjQUzd6rer44ywwO//cX2PyxNk55I7YuZSyLtZzU3P04ZrN+vgqVy4137w7To4uR1h712x2tb7yOc4jeXWaffJ6mfMzzwGLk5fH4Xtsm+eTb64oc3nm+kclPJ/jbNtEv5OoLJho7j+L/7pPnzhFE7RDJX8IefIPppwv0P4b5bOtrf0h7/KTbv9g17Pk83HzP94kbxdus8zqNuw61oIsM5XzxMz9GOG/z+JK5TiLWab/uZT0bx06SuVFGdpr/p1+8wu6zK4m0P3EdW1O9KwUYT6bmPcTW8x9x3xW0kk8HzuMZQdaf4uVlyzOurch32M4co3zO46M+5aPQPeJmGPW/5w05xVzntjMer7LTMi8J5nM61Tic9NZn9jrvb39ZG7zAAJus5hcrA73tgsyr2TXKKV4Pe7q7PO4yXxWdJXFfyfyKlhZqxv6J65jPpP7XlukxM+3vsbqnvLrddbulVrwYI016ba5Wn7jmdr9+BI99Vq05uD7FunOEZ9rY8lyvaI8zXhmtkYcflVz5/8+Wsmc37VTVHbnpTr88r166DeuanGWoUi+/AatK79DT3qLvOY0q66kSdXl2brOt+LVWvjUT/TDUK02Tvx3PWMWo1PRArCdNCy6xM4jsFZ19sUimlsg13XhmKniDbX2y7xTvlZ1eZN1/4bn5W7ZX7BynrQiOo8H1lUr88qF3vyCriBUpF7ZIY1aWWZXWKBn7emrdoXtBynXPGMeqgIomqqXCj5QYeE99s+TerM5WzdX3qHbI5Xy9eCGh3Rz/yo96KnnmZM1r8pxytr1ZHR+ZVX6m1FNkjTnmPJ1uvZvTxT8CyDpNrNkLXlH908aoD1lxn5y6lVsU3WzlHnRGM9+k2aq4KKQVLPFG0ixgzXOMjfV5OsGn/x8mVcutB68XfstZ9I7Ki6yK0Sauedqk33/8Aq6zxeoYldYyhiiAmfeNqeJ/H7jRpt1zRDrJps3PGa9gzjweVgK9UvwIOfqVpB1sZ47v96VW2yz9oYHaoJP/pc+BeNVXiS9ZNd9tCqsQUVGV5nQMN01f5iOOHmwKg6qT8F4n+6fHSsaLI7uo1WHijWt1KwZxACNKh2gHYVrVad8jdowT/nvL7WOA/c+u2ieRh2ypmdeNE/zJkmbCteqTiHlX+NcX8o0rVR60XXsbKoJ6bIFrmPRkTdZ9y8Yomrnb7CvVdbf0PHHWfuwWl5c97mT726HDoSG6S5PN2H7RaXeycn0gkoe2ad+N1ys0a5agQ0dpfKY+dVrqGeZVndlK9gUbSmyUsM8x//oMePtFyOnzg4dyB5ldHNOvv5WDiarO9qEbOe8inZR69yWKdGuvyUVsS+iHtmjVD61n7YmumYk03BQH4alPnkDjf0b0ui8kKfbbbDtb0l6PUua88vuwj5/inX8OPM0uxG+u097fdff6TZcHw0wJF2mI8B54gqceud5UC89EvvS3CZilvmCStYc0XXG9g++n6y/c4Lc22WgJsx0nesBl9l1BbufJH1WkqIvyjVrXc8iW9S/1PvcG/T5rHXPx0u1p1n2M1E0eBds/R1lGpInyXOv7EhhfXzEnBbM9IlT7I9MzrG4TyoYb1yzB+rhG6SVTp1Iq0PvtTH6gSNa79HPh8U8TwVbZjIHdbezjKqwfZ2ILjc272zic/ONbft0QNKg843zMGugLghJLTUHUwyOBdtm0Y8qdj37HtVStdkVvAs2rza9Hnd3Sd+JnHzotbq/0h5UJGOkZtn/v9/I21+w0nhHL9spmdcWR+lw64OGz/NtUOOGZEvhGu30BObG6qYRfSVla+htkq69XINDUu1+d/BPGnzfSOVKCg2+XIMlDR6Zp5Dq9a47+Kc8zbgmW1JfDR5ptshJwZOnqVpS/iVfmiWWa0ZrcEiScjV0hlmIzkYAsLOVTtZlGWHtKXMH3hbo2XXVUsZIFble+qtmG18XV6zVHjPglD9AmQqr+nXXl4mKW/REnC+XbaJijSZ4WvBV676KeknZKnDWv3Scrsg4qjdXrFGC8X51+80FOqO5Sv+xqNosirHskiap+XRtSzTDIAJtszIVXRlS064nXPvA3k95xXYAZLWq3vcJbBSNUX6GVFcVnV/BzSOV2bxTL7q+IFXNth+qzZtK806tcgVmG17fryaF1N9sItkGnHl7H2StB9ymXWtjgsNWfUk1e2PKgnByh1iMPGtZIZ2jsI58Zhc3vKcfe75ohrXkzYPWy6kZtAvv06Ouh8A3PqhTi0Lqd7a32oEK18vlu/U6IOmc/qk8iLa97w0ISc37VeU61xsWXRL7lTOQkPR+dL9lar/rmBugLPs4zcw4FM1/khFS07ro8ZY5wDnQFuhZ44tm1Ys7fY4XxbxQacVe1UnK/L5Vr6OPs3ZTv8PVcuGg3q2X1C/keuEP6RxJB/7sPm4P6u5WfW0PadEVA32+7B/U3Z7WSMM0PBTbQuCNbTs8rQ4nFITUUrXdNe2g7q44KGW7AoUB1v+NbdFgxkv1zrkXfVlJrWVHZwpr75rk14zEwnqjJiyFcjTa/XJmv0hGt2PA7e8IeD2LzxUIfWSHDjgvmZH95BwrcdZ/aLYGKay9f0gSRI0nyXky+sIc9fHkjkxwbW8rZ/dTH4X14Qeu4zPmHpPafvK+uDvb0vWBK9Ayu7Ig95Mgz0qSigYqU97nIr97TLDns2DPx9aHJHeur9XaUlEtKV9DIs/aAdc/YoH210gy17HDhHReP6WeeiHrYl2XLR2ocAXLGt7Tyqqw+hQMc31Ujb1fPf2HfWpRSBdcGH1WGnRmSArX6Q3PPWezt0Vd4GW2vcTnpn1Nys72rEPsdSmoINvM+qjSUrXP9VHF7wNMkHmlKMn1uCeINtKxg4TNO7XK9XE70kin6HmNypPqXM/EqrhFL+4KK/PKybEfpO1nXfMZPp5xj1yvXNXrNaf1n/L0vbMkHf6rPnIqXTtFZeXXSy+/qlpJZ2XlSYP6KaSjanSd9OMeWaY7B9do4+6jUqifciXl9u8rhY+oNlJrrO4pn63BH72q3WEp1D+2+envw0G/uJ2qvQcknfW1fzfg19/QR2FJqtW7T5mF6GwEADuZ1eLlkBrMC4XxwuxvtRrMXtnVh9SkOK1yOlL1555We7cXZEvN1ao0/06PQhXkSX97/62EQULLcQ08S9LhU7TKLDL1HaOL+krVH8d5OAuyzUqHK8fvAc/+XScY17Boi9FqKvrQGW3VZAc63t9mNA+vVmOzO+BiazzorWd/3WpdQCgJv1aM8f52ub60tTbA/NkRtShD52VJUob6hVwPYWf38+kOZvjsiFrMaZJ0JOwNsNgji3q7dxzUu6l07+sgnx4KW18jjRbArWPsN/NYcngCa2E1Jo+/WyoO+o/EFpNPxWqFGnmo6ujjrJ14A2M+GsL6q6RBRX4Di6QoJojkb/r5A2NexGLYAR1PIELO+eQKLLXl+nd1ybZZQFZrEu/LmfMiGbneBN3+jkDXs7bhBBfd6x/omEog2TE76Mx4L7KuD0Btzd7WMS1p3FLcT2YSfCs47gp2BFlmlxbgfhLvOm48Kzn3jpxJtYlbtwd5PvMV+3z8vQHxj7PIPS/o+rtYI5O2b/ffeKZPHG998NmU2kelmGuSzfoo6zyTxWHfF9ys3hzDdJe7xavhpJZ5kpKdm0//2fzg4LTadrV6PhnmNrM/rvkyr/cmc14pSnY9RlTs+5ul4S+HPB/Ro+weV+aHDBf34B435R7V7seX6xWzkm3wfYu0/M5+eq3E6MLrMVb3lC/TtY0rNffWF1zBPsNtc7W8fKQaH79XCx6sN0ujjn6uvylP4y4YY5bEqD50upTxdUzKLst2LZ0xURPp/tslEQDsCmJelqM8waCi5zXP1UQ50nTZreIWPWF33btsgVMvtltpW7t95UOqrHT9LCjQGWaljtb3Fyov2aKKK6QnyotV+olZwRZgm2V9f4DkKbd/YnLJWF+Do4ENq/uvp1WT/eU788qF3nlVevPXdA77i7irFWNBQb63+3Jbagjrr86L1NBsDarfp71h94Ngsz523UVjRsHzzRnVvTUsukQP2C2AI10SfLsedTx3twnrJ1FuyUQ6+DjrNAd1t90lZ1DRSY7aaLceShwQsVuDJHmBGN0/I9IVKPH51Ibr32NYLSqirTisF0l3S4/g278TNLynrZ71t1qqHHgztQBDKqwWLQN1XaQboN3a9SSCjkk1vKcfP7JDBzz7wZtOos33U4BldnepPCs9a3fBzZnk1PMJ8gV4PpOCPR9bLdbdvSxmqrgo39NaJ/j6dxIjxcKEfvv0aCu6yVtB94Ga4D6u508xcixb3GkenGPWTNvyxrbNVhdW9/oZ3UpTWWaHs1vfRboBZw3UBaHWt3pOus2c66y75ePQYRru85Ev6bzQbqyPBvm6wbi2ePKDpuiV+a6BQB6v0eA7/UfldVr0PV4SP0CoQU7rwHujOQR95N63SMtvlDaWxOb8i3H05yopL9YroZ+qomSLygMEAtH9EADs4poO2Z8l3UnwXc2U/fMbRHO+PbDO6t7gl1uurVgDexzVm2VObr8Eefs6kn0RK3pTmleyRSvONSu4Jd5m1teesCcvm/vH3RqvqsoV2Cgao/wMs/uK9eXbzAsZ+ensVk4r9rpaMVqtFb3ddNreOf1DGt0/Qwf+/J4+PmK1PhndP8PTrcXKlxL25JgpWbPPvwVgd7eiyHuOx80/1HGcJMh169zHq5XjtFU64TjrHK7ul2usrjutagEUp9WRl50PKkl3HqvFhXEuuX68LcvaaP17kKf/fDDajdZ+kXS3Iktt+3c8z/oPzdYgn1Y7bcpu7R3NS9jKxPspi+YSs/JveXPKts9+SrzM7i6VZyVptbb8k11WZqWT8G/pl/j5LPDzcf4A4+PrQl0mb7L+1Na/ExgpFkpaeY4c+DwsxeTOc36iAUX3ABnRciuNQIxIHjo7HYSRKzPoMjuH3S3Y7oEy+sIc9WnlB4hg28z+WOcOiBYNjBmIJNi80F4+PRT2yZvu/LRBq9/XXtBTu49KuRfYI/fW6NPDknKv1016VXNvfcHVFfgcnSXpcEONdOCIwuqrETfm6aPHva0D3d1+axuPSqFLdVNMIDFb/UNSuNGnJaDdeObSj4tVVF6skg+3mTWQBggAtrs43TptnmCRm9ENwWqGHNaeF1N8QV5RZD8wxTZVjt+E2XDNQv12/XqtX/8r3WqW2d12VfMH3ZfgQvjfh45KGcaw4qXjdIWnxVu9DjdLZwzw5iS4/Wa/1oS9dfBwgtwDbke36f2jUv55ibpTu/htswTdP2KsWKs9zVZgI+uaIcqMyQWR+JhoT8H2uTVIQ+ZFY5RVOlw5Ps3fI5yv7q0OTjXrSFiSMjQ6TzrymfXy2SdvoPWFM9KSyUlCH02i3/VcrYVPrdf69ev1qzZMeFs1236R6T8wcZdgJ/lwu7AHsmneqYp4x0LKOvI4S01sHkire3rL5+aoRSlqeE8/toNoiQN5dvcjN6c7rpmo3GB1xTJyuJkCBRN9BF7/oOzzOt28u097w/aHDL8XydZu/47iWv/p5w9su25wvly5Ld0BgVYGNvwFOM7e3WEH5Fwt0Nt7P/ktMyI6cEtbdL+/9WHr3vTbBVebRW0rlWclt4pb9IQdBEz4uz7PZ8Gej+3WfkaQMKarXivWv2BlnNaLXViwbrf2fSi8Ty+lGOx+er0dBHR9jAq2zNS05Tyt9A0DNXSo3Wo75cE/FHybRXL1egOh5ijEgebVXrIu1nN2i8OT/0DRPs/H7S3YO5NbmaZV1sYM4pmKV/bXSzqq3RuNAT7cA3q89paVX692p9Gib6yG5krhj97SR5I+2lmjsKTa112BREm67QLl6qg+2ml+JZHGfv8inaEavR2v15xL/oAvpOZTFC9rkHPf6U77vKcgANju7DwkvsmDo8Giyzwjn5Vp2iRvdzjrIuTOLWeNHmx2ccha8k5MPpW4eQad3Co3J36pvvrKwXZ3F7+RfKygnfIujI74W3pHTBfgyter9Tdlq3iJ/VRVNFUvTTpTf/O8T1er8v2jUt5VetDeVoVLfq6b+x/1bU147zuZUsYXGlNolqQm0DaruEU7auQdfTcuazCQzIsmq+iikOoqzFwQdvfHvMn+o0i1p4D7vOH1/WrKGKlZk/J9B2VwnPzorFaLpT4FozRc9kvyu/U6EBpmJV+PBFzsQKE7SfPQUa3vitUuBlk5DCXljl6o1r1mzVTxBrO1rj3KoCvfknU9cCUuL604qS4JydnXMffHCnsk65MJOnbccRaQX7ccSdMnjtKg1iQDHzoqZnRDKw+SuyuvdWy7u4wumjlew80YpA7qpaqwlG3Oc6AedrWycHLQDZ9qdGccMyraas/+O5OOchto/QOKCWDaIwwb1dKD1ZqkT94wTcgLxXafDbr9O429/gXjrVbXrewGF0ywVquBBTzORo+JHfF9+vkDvWkn2ng/BVqmw875qQBB/+Su1nlnWv/qM2KCz4fcNhT0Wam0Iub5xwnkuXPQBnk+C/Z8bN/Dkn1IC7r+EZ09CnAr2UF+8z7hZZ+b7g9KWRfruZjzKaRFM8352EF3dzqKQMtMkZNX86qTPUcUSd8wqGi8hodacb+Xgm+zQB8XAs6rnVj3ehm5EVurLZ6PO4Hzjr7AfC6PI9VRgG+bqztH9FV496vR1nm/eVW7w301YsYUDTbq1b7stOKr0VOv10u51+ue25xKeZrxzPXKDb+tp5zuwK+9oNdqpdwb59otDO1BRW7MVnj3C8m7Ayf0pYYPSpSL/1YNtV8QutU+7yF6ZWdnnzAnmkpKSrR9+3Y1NpojTnSu3Nxcffrppzp27JhZ1MXMVPEGb363pl1Lownxk5ZbnC54jrp1udpfUKsb+nu7MBSsNB58mr3lHjGBg2ptco04K9ktAP/th+qjWm30TeZZqCcrx0WTgDZX6cEV0r8tKFDDuns0x2nVU3qHKic5n+Hr9WLhr6WVD+lmvaJC1yjCVpdi+z81r6hwtvRk5TjJPS9J0pfa+kqDBvzxPA1b3NtdYBijpdf9VJeH16voLZ8BBlLYZuY+kOLUdbqk+G1PR6SOW1h7ypxm5WWaVjlZOTVrE3YL9l0nm99xFGifR45J9/r4cHe9SbCOiThdHFqqNkdGJrO6+8roDmG8yIX36dFN0uypw/TXSD27TsxIqV7WMpv1kjtBu/2757jWI1VXL/itfjKijxT+kx6bsVTbzQqB2PvdNcVvP3r3e7U2Fa5V1oaFyn/frltaofsnDbD3n/dYsn5X2lP2hFS6UJc1mtNjfyf2OlWtTYV7NaRysjIj62fXMbpVxddxx1kqnOMvImx0R8y6WM95jjvL9Il2TiZXXef4jjpoHHeKObZbqjbrx43DVF6k2LpDRxk5k/zmFxtEdJ9fjth1i/1bY+v4Lc/i9/d72NvNCdofqHhBL/Ufr7vy6iK/E7u8KL+/ISFjeR6uv9N3vePs48Aiy46/vXz/Vs/2D3Y9izleXcwuZYGvc876m8e+LdAy42zD2O3tH6ST7/oHEOA4k9/fEOdvTbqf7HMyyLoGXab7HA4y36Rm/Errb8iV4j7HJRHofhK9hvs+lxjPSrF1/J5Fgj2fmfPyfz6Ovbc66tZ5u/ea85P8l6vI+iW5h7WB2PPGX8wx5mIeS751Pdcb815yUC89Uq+hMdeQ2HM43vU6+TJTlOiemMK5KbnmdTLrE3Cb+V5XZF4Tgs3Ld5vaUr8e2wLcw1Jx8s/H8c9f97XD99y1+T1LF6w0rxOxYq5BktWaOOZ51F5H32vFWN1Tfr1yPdPqtdE3x1+eZjwzWyNcf0btyz4Dgdw2V8tvdO348Nt63N1t2DbukWW6ybXg8O6VcXMGjr1gnX52YYPWld+hJ81CtznNqiv5u3Y+dLamxhm5M7LPW3vfQbshAIhubdbiz7TwH5XwAhQkAAhTqoEcSK5ged1GTbybW11yHGdAl2S//CnOS3zbsQMHPoEw66U2rL1rOjs/WDq4Vb9af5NyW/3y3d3FfzHvqAAeuoFUA4at5M7t51mOE3Q7qQBkF8XzcbcQLAB4XGvWfqyRh7OUM/dUszCKfd5l0QUY3dqqxSFV6wuNnN2SIBfgNv1Pe76/pKOiMcrPkE/3ZcR3tRZOt1vKcqMLhuMM6JKs7l+t7QaXgqyQzpF8821ZgwagLdz68E3KVYv+9HRPDP5JKhqoTElN72+LuddYif4Bu0t+B+Tcs0ZE9hlcyU5hkH54Pk4nsxZ/rpEZp2vn+gTBP0m33vRD9VGL/rSRfd7VEABEN3eqrnuov8IZjVq4/EuzMOK/wy3S98dpaV+zBLHKNM3ubtnpI951E1cv+K3Wr/+Jfqg/6TGauQfEcQZ0SUNH2a1TTr7bV1L2C280B6Yt62LNLghJ5gAqSM2MX2n9+vW6KadWGyf+i5a+blboISoOqkmyBp1yTy96XjdfGZJiBmtDTzN6jJ3zdFPiLtZtwfq4EZtbz8o3LB34c/q0/uP5uDuZqZsv7CP95e34rf/mNGvhP36h6vL4Pe+sfb5eN535Jz3Wk+87XRhdgJEe5jSrrkRaOy5D95plNqtZcx9JLXpr6yQtPGrW6OHcOQl9c1sAbYDjDOiS3DmpYrqmtavY/GFKkEMMaB3/HGJ+ecHQc0Tz53VsugH/HIBtk28PSM1MrSiZaOXyP7pb/3frz+Udg9hhdf0d8kGy3Pvo6ggAAgAAAAAAAGmMLsAAAAAAAABAGiMACAAAAAAAAKSxbh0ArK2tpfsvAAAAAAAAkEC3DgACAAAAAAAASIwAIAAAAAAAAJDGCAACAAAAAAAAaaxXdnb2CXOiqaSkRNu3b1djY6NZ1CWcKN6nL68ISQrr2yuHqfcnZo22dqV+OvV2XdrX+f8XentDqX75mbdW55ul4z9ZqK8yJTXt1KmPTVUvswoAAAAAAADSWlq0AOy1ZZhOW5yjU9+Uvpq9T8fPNWu0tV365ZpbNfXJWzX1jXqzsMv4ZtpCfaWdOnVxjk4j+AcAAAAAANAjpUUA0NFryxadopBOfM8s6YmW6Zs86ZTtBP4AAAAAAAB6srQKADpODJhlTup5zh2opH27AQAAAAAAkPbSMgB48n6kB+c8ozWRn1/oFrNKYOa8VuinZ5t1JF34C1edZ7Rm/I/MGgAAAAAAAEDKCACazp6v1XOKNWD/f1o5/p68VZs/ztb4VgUBf6QH5xQr5+MtkXlNffJ1ZRbN10hXrZFXrdCa0Wfr7Q1OnS2qO6+YICAAAAAAAABOWpoFAKvVq8mclppbLr9Epx99R7/5w67ItOc3b1GdsjXmqis9dZM6+1wNkFR34Heuib/TfWse0c7I/3+kG4acri/2/9Y1ivDvdN8b9dJ51/i3FgQAAAAAAAACSrMA4Cr1Oiwdv2KyvjGLAvmRLj5P+qJ+lytAJ0n1ajoqnZ6Z7Zma1Gef6JCknNHP6MELzULbhRcpR1/oz3+OBhwlSY1N+kKnK7O/d3JQJy4ZouOq1rf2miUAAAAAAADoSXplZ2cnHSuipKRE27dvV2Njo1nUNZ27Rl/NHqnjqtZ3Fl8XPMp59nyt/qdLdLo53fHxFk3d7G7NZ+fuG3223t5Q6mrB53alfjr1dl3a1/n/F566I69aoTuGxF2i6t64Vfd9YE6N70TxPn15RUi931yqb29ZZRYDAAAAAACgh0m7AOA30+r097N26tTHpqqXWZiUlbNvwP7/1ExXF+CEkgYAXSIBRlcQMJXfT4EVCDyUWgAUAAAAAAAAaSfNYkPL9E2e1Pujba0I/qn1XX2D+uwRzdzwjrdr70l29Y2n1zv71Vv5+ma4WQIAAAAAAICeJM0CgCdrl35ZVS+dV6zVqQ744efCX8TMZ+T5P9Dp+kJNTmPKzx7Rto+lnNErGPADAAAAAAAAbS7NugAv09eLJ+vEyea/880F6Oq261tuO/qOfu0a5Tc2x1+9Nj/5cz3vmiLferHzSomdB7HXyzk6hYFAAAAAAAAAeiwCgOmKACAAAAAAAADoApzGPjnYyjyIAAAAAAAASCdpFQA8UVysrxXWt97p4a3/JEnV6tUkfX31GiVt4gkAAAAAAIC0lRYBwBPF+3RscZ2+vCKkU14ept6fmDV6olXq/dhSfVsj9eXiOh37CYFAAAAAAACAnijNcgACAAAAAAAAcEuLFoAAAAAAAAAA/BEABAAAAAAAANJYtw4A5ubm6rTTTjMnAwAAAAAAALB16wAgAAAAAAAAgMQIAAIAAAAAAABpjAAgAAAAAAAAkMZ6ZWdnnzAnmkpKSrR9+3Y1NjaaRZ0qNzdXn376qY4dO2YWoVvI14Mb5uiKxldUOLvSLIwqmqqXFhSoYd09mrPCLLTNaVZdibR2XIbuNctsYy9Yp59d2EdSi97aOkkLj5o1urmi5zVvwUhlqlqbCotUZZZ3otFjxuuugpBaqjbrx9vCZnGX193XH24D9fD8URqkg3rpkR162izGyRk6SuVFA10TUtzOWRfruanD1Mf5f3ifHl39nt7w1kpRSItmjtfwkHSg4gXd/a5Z3s7sv+mvKS87ut6WsPau2awlDd5a7SKyH1Lcf2gz0ydO0YTsTjpm0bac8+lkrmftcm1Et9Ap1+MOfFYqrdD9k/Kj/69ZqwdmL3DX8ChYWasb8qSmXUv1xKLVZnFU5L3IEdaesku0pcJTK60Fffddtrxek5WlnLmnmkVIQ7QAbHdlmlZZq3lLZpoFnS5ryTu6v7JCBWZBd1PYon0lTQr/8Yy4wT+d+2v97ELpra3FKiqPfwFMd2mzzwF0PXbwr6Vqs0oeecH+SfHFoeE9/dj+3ZfqzcKeJqwlq+3tWHHQLGyV0WPGq3z+KE03CwB0bT3p2ph1sZ6bP0UPDzULkJZWFOmBwlw9ULhUe5rNwlZygn81a+155+qBwp4V/JOk3384SUXlxfq/H0iXX7dOS/uaNSz3ru+v8KAG7Vt83CxCGiIAiG7uS229p1GhA1katri3WRgx57w86S+vpHfgr+IWPVGYqwe6WOs/SXqj0bqj/7Wxe7ae6+7rD7dmHQlLCh/RAbMo7ktHSItmTlH5RHfLNpimnz9Q0kFt7XKtZKOBNFpSBRQJNqQYwEWbOfB5WFJYRz4zS9DtNIT1V0k6Eo5tsWffd8rNH+43cHTK9TjBs1Inq5ptBfQStf7LumaIMhXWnhfjtyRsM7fN1fLyZd6fZ6ZosFlP0uD7FnnrPTLWrCJJGveId35l9+WZVaRrp6jMs9y5GmfWsf3+w1dUrT46M04AUJV9NKw8U6F//Fhb55iFSDcEANGtzVocVr4ytTZhk+Ux+odIFyoAQLvpgi8LANDVHahwWk2/oJI1+9SSPYrWusBJOaSGjmjx95vlmltyr+vnVdWGLtWdRhBw3CPLdOcIaffjdr3H31Y493ojCJinGc8s00259drozO/leoVGzPYGAW+bq+V3XirtXmkvc6V2h7N1U4IgoCRlhcaYk6KezNDaA1J+SbOWmWVIK+QAbCdZS97RrCvjR53MvAUx9X3zH8xU8YaFuiwjOsWcj+SX88CdE65M0yonK8dV3auV+eNK71DlpGzXhHq9WPhr/adriiTdvvIh3Wx+xKgxcwAW6snKcXJlg5AkVcfkAPxSW19p0IA/npew9Z80Rkuv+6kuD69X0VtxvhYl3GYuifJU2POQzz6x9q+M3BPmvjCXaZVn7lqqJ/4y2bPcunW5etbZFua6N+/Uqn+6RdE0UeZyTM5y7Xoxvx/9uz3LldHEPuZ4TW76xCma0C9eHhsr/8g57rx7SfOLuX6ncZinrjuP0ugx43VXXp0eXR3WhPmjNMiu01Vy/CW7Hljlh+IfL4tW2/tM2lR2SKMiuSHXKsu5htSs1QOzq1W8YaHy31+qHQMWRnOqRI43I1+KeayZ5c41qnGtHnhxoKdu9FrV8cdZYHFztdm52I7sUMn6g3a9HH24ZrM+vsrK0yXFy8nk5NFxmHncfI7zSN7JZp/cO+b8zHPA4uStdPge2+b5VG//fR7m8sz1j0p4PsfZtol+J1FZMMFy6E2fOEUTtEMlfwh5cmy1Pveauc0sMfMLtP1tQ0epvCjDd/0t5jLdx4VZZnLVDZhnLPg2M/dBlO8xGVdq54mTP8/hvyxzu5jnkuu8N/7O2PmZ8/I/1roe65od+B4Q8zxhPrdYkt3DLOa8zGXZzOcu32XGPh87vM/JZr04y3T9DTH3o7YW59roTqlgHrvJr43m8Wge2/I9N/2WFTuvOMd2KtezOMzz1hS9vgQ4N5Ntv2y/bZJMwG1mXkcjvNsu5u81t5k5n5O+Hnd1rmfImOtFNPefI9G56f+cbDKvQX7XFou17PjXC9Pg+xbpzhGfa2PJcr0iu7XenZfq8Mv36qHfuCreNlfLbzxTux9foqde8/m/7/zyNOOZ2Rpx+FXNnf9718zG6p7y63XW7pVa8GCNa7okzdSKkonK+uCXKvlwm1HmUtiiffc0SonerWf8SutvyFXL7sf0L2XbzVJ0A7QAbCcNiy6x8w2sVZ39ABLNQeButjxTxRtq7YuUU75WdXmTdf+G55XlmmfBynnSiug8HlhXrcwrF3rzC7qCUJF6ZYc0amWZXWGBnrWnr9oVti92rnnGufAlVDRVLxV8oMLCe+yfJ/Vmc7ZurrxDt0cq5evBDQ/p5v5VetBTzzMna16V45S168no/Mqq9DejmiRpzjHl63Tt3x7nAhVU0m1myVryju6fNEB7yoz95NSr2KbqZinzojGe/SbNVMFFIalmizeQYgdrnGVuqsnXDT75+TKvXGgFclz7LWfSOyousitEuv7mapN5vZdS2OcLVLErLGUMUYEzb1tBQb6kau03brRWE3tJecNj1juIA5+HpVC/BC+mrm63WRfrufPrXbnFNmtveKAm+Hwh71MwXuVF0kt23UerwhpUNF6L3DsmNEx3zR+mI2uiObb6FIz36f7ZsaLB4ug+WnWoWNNKzZpBDNCo0gHaUbhWdcrXqA3zlP/+Uus4cO+zi+Zp1CFreuZF8zRvkrSpcK3qFFL+Nc71pUzTSqUXXcfOppqQLlvgOhYdeZN1/4Ihqnb+BvtaZf0NHX+ctY+Qhk+dous+d/Ld7dCB0DDd5em2Zb841e9wHbf71O+GizXaVSuwoVaLEO/86jXUs0yru/JdBdJe59h+5AWt1DDP8T96zHg7oOTU2aED2aOMbmfJ19/KKWd1WZuQ7ZxX0W5sz43xifx0mBRy6GWPUvnUftqa6JoRRNbFes4OVEW22Zp9ajGqBdv+Afks86V697XxoO52/V1WMCB6bHi6laWSZyzpNrNflrVPj3qWb72Yxrw0t5Hoy330b9x65tXefZl0m7lkj1L51Bx9GPdekfw86fKC3AMCPrcEu4fZL96e/Fxb1L/U+9yrouc1r2Cvq85S7Wk2l2kHDbRTqzzPOlaAIPq8XaZplXZwIVJP/vcw57lNUk6B91mww3x2JOa6EUjAY3v6xKulTa7rgH1ce6/ZwY7ttrqePb3e/n37mulpFemXwiHRufnuPu0NS33yBhrn4UANzZZUX59i8C/gNrODdops/83aG5Z93Y0G/0aPGa+hf3bNy2n16d5mbXo97v6crr8PlO1Uk1ko+2NBZa3ur6y1P0Dk6wb7//dX1kbf1xT8emYp05A8SZ5n4tQMHpmnkOr1rjv4pzzNuCZbUl8NHmlFNscNyZbCNdrpCv5JY3XTiL6SsjX0NknXXq7BIal2vzv4Jw2+b6RyJYUGX+7b/TiQytO0v1kKXXhMs8wy261DciVJfQaP1tVmIboFAoCdrXSyLssIa0+ZO/C2QM+uq5YyRqrI9cBUNdv46rBirfaYAaf8AcpUWNWvu1qgVdyiJ3y+pLSZijWa4GnBV637KuolZavAWf/Scboi46jeXLFGCcb71e03F+iM5ir9x6JqsyjGskuapObTtS3RDIMItM3KVHRlSE27nnDtA3s/5RXbD4+rVfW+T2CjaIzyM6S6quj8Cm4eqczmnXrR1VKwarYdpDEHjGneqVWuwGzD6/vVpJD6m00k24Azb+8NzrrxNe1aGxMctupLqtkbUxaEk1vPYuRZywrpHHf+o4b39GPP1+Swlrx50HqYM4N24X161PVS+8YHdWpRSP3O9lY7UOH6iv1uvQ5IOqd/ZwYspO8NCEnN+1XlOtcbFl0S9ytnYiHp/eh+y9R+1zE3QFn2cZqZcUg7nOkZITWtix5vmQOcA22BnjVa7FW9uNPneJEdZHZdr1bsVZ2kzO9b9Tr6OGs39TtcQYyDerdeUr9Q9GUjK6RzJB34s/u4Pai7fb7gJxfSoisGxrYQ0EHd7f7/0GEaHoptofHGth2eVocTCkJqqdrumnZQd1cclLJdgcIA6//GNvdLpnPuRV9q2ivI0/bC2rsm+TUjmelXWSN9rkz4dwfc/gH5LfPp9Tt0QAN1XbsGYJNss6yBuiAkHXjTfbzs0wFJg85PLTAQXEjn9Yt9uX96vfd8SG2beV/cY+4VAc6Tri7IPSDoc0uge1jRQGXK+1zkd4+JfRZbrS0V1ZLyNcR5vnSesSqiv9uwaIvqjOBd1pJi5aham1zza1j0hPY0h3TZzWaQz36ei1nHDnR2P/VpRe7hoMe2eU74BswCHdttez1LTaJzM6w3asJSKEej3eswNFuDFNbePyT5KOQjyDYbfWGO+nhy4fo/q76xbbM3oNnwnrbWS8rOjv0IEUiS63FPEBlMJE6DB9e5H/R6Zlmg/TWSzHfFeK6dohkj+iq8+1Wr9Z+k3P59pfAR1UYqjdU95bM1+KNXtTsshfpnS8rT986SdPiv+sg1r7Ly66WXX1WtpLOy8qRB/RTSUTW68q2Me2SZ7hxco427j0qhfrJCdG41+jxQHvze2vbB6VLG1zE98RzP7Lf+ipaP3hDt/7onAoCdzGrx4pOjwHhh9rdaDWav7OpDalKcVjkdqfpzT6u92wuypeZqVZp/p0ehCvKkv73/VsIgoeW4Bp4l6fApWmUWmfqO0UV9peqP41y0g2yz0uHK8bvw27/rBOOsh05vYMNqveRu1WQHOt7f5n3QVbUam90BF1vjwdgH4sL4zd5Pil8rxnh/u1ytD1sbYP7siFqUofOyJClD/UKuhx/74TeheF/IzUTb9ldU79fjg3rX/JrcBXx6KCxljNQsowVw6xj7zTyWHJ7AWliNyePvloqD/l9hmw/pU88EqxVqpCVGRx9n7cT7UuTDTvw+qMhvYJEUOcGUJMucfv5AKVynN3x3tM1+AfrwA+PF8rMj3heGtlz/ri7ZNgvEalnSUnMwceAn6PYPJN4yrQTufc706RPZVpJtswTX8JbPzeb/bSWsj4/YrWHitj5KcZvF5LW0WlRGgtvpcJ4kvQcEf24JdA+z7x05k2pTb91efch738kf4EpL4dV0yPlDnJ4Y5kck+zm6/8CYdXV68rTLs1YyWRfruSLrg09Mq7eEUjy2Pexzxy3Isd2m17MUJTk3nSDYBRdGA5+B7pGBxW6zQWeaHxAcyQf0sQb+aaU2+5t6guDXM4fV+jBB91/3gBx3XqpQ7as+3XBtt83V8vKRanz8Xi14MH7TzsH3LdLyO/vptRKj27DHWN1TvkzXNq7U3FtfcAUYTdv0P2HpjAsnKtkYH6s+/Y6kv2tgoVlie+rfNXHiRLr/dmMEALuCmJflKM9FqOh5zXM3Za705kKQnBdlq9vGZQucen7NmdvW7SsfUmWl62dBgc4wK3W0vr9QeckWVVwhPVFerNJPzAq2ANss6/sDJE+5/ePJh6bIV6JoYMN66PS0arK/fGdeudA7r0r//DUdy/667mrFWFCQ7+2+3JYawvqr84A4NFuD6vdpb9gJCEpSsz523Z2nTzRGyfPNsdK9NSy6RA/YLYBn+XVb6ERZS94xjtlEuSUT6eDjrNMc1N12959BRc5x28ouOWf3U5+kLxB26yczAG4Y3T8j0oU58fnUhuuPiODbPwC7hU6fgmhXbGc/+eXd61B265hBV7i7jA/zDxa0oafX212Ns0f5d0Vv823WA86TFJ5bgt3DFujZwqXa02wFAa15+X+ELViZ5LnL7g2TUxQNOFqt/dwflPLVP8NOT+FZf5/n6E4SPXasa8FfK15IOYdeSse2z+jDsfn3kh/bbXo9a2t2q7poCz0rQOpulZySANvs6T/sU4untaXdej8mQDdQDxvzcuftRTtK4XoW2GsvaIFrIJCNul7LyxdpxrXearn3LdLyG6WNJd4cfyanRd/jTg5BP4Oc1oH3xg82ujz5VrGKtn6ucSVbVFHy66SBQKQvAoBdXOTrpTsJvqs5c7Kcbw+ss7pK+Oc0aBvWwB5H9WaZk9svQd6+jnT05yopL1bRm9K8ki1aca5ZwS3xNmv4yyFJYU9OG/eP+wtxVZUrsFE0RvkZZvdi68u3mRfSr4l6p1ix19WK0fpK1t5dYM7pH9Lo/hk68Of39PER62vt6P4Znq+7Vl6nsCevmV9urbTg6sawqcZ+aYl5gepY7oTo0ePVynHaKp1wnHUOVx66NfvUopCGT21FcCBQawq7NYK7G7IPq+u9cS65frwtTtpo/RGR2vZPwm6h0+LOOej+STWA0KbsVt2uvJBWbkqfAQTaWLRruhW88OTpapdtlubnSarPLYHuYau15Z/s3y+z0kmYPTGiifddy4rJ/2UH91wBx9hB16yWPTKeoSM/ZtfjTpA0310QQY9tZ3AJT26/eHnmEh/bbXo9awdP//lgtBvw0GwNam3vj6DbzG75HA3C2nlQjW7TD88fpUFGygwnRyraWarXs1Z4Zf6rqnXl9qttPCqFLtVNMUG9bPUPSeHGekk1+vSwpNzrdZNe1dxbX3B1BT5HZ0k63FAjHTiisPpqxI15+uhxb+vA2K7GUXMujzaKKSq/Q0+aFdBjEABsd/GbE8sMFrkZ3eGsbqRh7XkxxYvSiiI7oBXN9+Wwglqx02Ncs1C/Xb9e69f/SreaZXa3XdX8QfclaLnz34eOShln6gfuiaXjdIXnS0u9DjdLZwzwfk67/Wa/1oS9dfCwpLO+jpukNOLoNr1/VMo/L1F3ahe/bWZ09U1oxVrtabYCG1nXDFGmkQsn2THRnoLtc2uQhsyLxiirdLhyfAZliHBapcY82AdldUuRMjQ6TzrymfWw1idvoDUwSKQlk5O0eV+7vzi23tVa+NR6rV+/Xr+aYZa1XtVs+wXKp4uSR+nwVrbGC8LuPtW8UxXxjoWUdeRxlprYPJBWIOOkuy02vKcf2y9QiQN5IY3OM9bB6YqVJHeaNbCOkfPIFCiY6CPw+gdln9dpw7+b3fSrjJYwrd3+vvyXGY/1su5uZd1+rNZ+5oAjbRn88zlPYoS1ZLUdBIxso9S2WcqSnSdD7ZaJM9tgkJCEz2dtqfXPLYHuYRW36Ak7CBh9zrIT7ydpGR7J7ed5iTe76sXv6huP0+I95S7KnSrYsW3lqWtFHjy/Y7tNr2c2+34Xey9uhXf3aW/Y+rA8/fyBMflBgwq2zVy5et3XPTMf6NBsDdJJtEQ8KXa+7fkJunWn4NaHrefe3y7oTsNBpH49s1oi+7dSDuKjnTUKS6p93RXUk6TbLlCujuqjnVaLnlf210s6qt0bjQE+3IOIvPaWPgpLqt1ptCIcq6G5Uvijt7zLkCTN1KXfl/728TZ55xxr1vf+Luk7OhgvH5dz33lqIYOAdFMEANud/dARGSjCYAeLLvOMfFamaZO83eGswI07t5w1erDZdSFryTsxDytx8ww6ue9ikh97XX3lYPvlJVdDYwIbVtBOeRdGR/wtvSOmC3Dl69X6m7JVvMS+2BZN1UuTztTfPO/T1ap8/6iUd5UetLdV4ZKf6+b+R31bE977TqaU8YXGxMtREFCgbVZxi3bUyDv6blxW8ujMiyar6KKQJzG1U76lolrKm+wdwbkjBNznDa/vV1PGSM2alO87KIPj5EdntVos9SkYpeGyu0e8W68DoWFWUulIwMUOFLqTIw8d1TW6mEQMslq7SMod3dqb4kwVbzBb69ovQa78fdb1wJUEvbRC908K/iCTOvs65v5YYY+gdjJBx447zgJyugsVDDNGSxylQZ6k3gENHRUzCq7zEhHtymu/sEW6KNkjp8a89xzUS3a3xphRGl25zqxBFkIaPtU74uPoMaOirZHsvzPpCIGB1j+gmACm3QLCqNa92UnnXYnvR48Zrwn9wt6WykG3fyB2gvmY4yIO+2V9+FWJA8ltoW2DjUHPk4F62Ays2fkzo/eTFLdZMimeJ9OdcyBZoD6IQU6exVwVtusLeNDnlmD3MJVWxMzH+dAdzT9ot9pzX/dLK2K6AAf7sGkPWpUxUrMCfUjqAqMAt0qwY9s6N9258aygkNmdNdCx3abXM4d9vhv34taxrst9CsZbvUgSBvDiC7bNgrXCd/JXuz/oTZ/YQV2A7euhAnxQTO5qnXem9a8+Iya080eIthT0euZIdRTgPM145nrlql6vOV1zX3tBr9VKuTfO1Tin2rVTVHZjtsK7X4gG8n7zqnaH+2rEjCnRkXxvm6s7R/RV7ctOy8EaPfV6vZR7ve65zalkLzP8tp4K0B04vuMac+EXUvMpikkFa4vEBUI/1ISYuAC6g17Z2dknzImmkpISbd++XY2N5ogTnSs3N1effvqpjh07ZhZ1MTNVvMGbV6Bp19JoQvyk5RanC56jbl2u9hfU6ob+O7XK1X3B6jIRqWaNIhuve0NM4KBam1wjzkp2pP/ffqg+qtXGif+uZ9xlkqRCPVk5LjpaUHOVHlwh/duCAjWsu0dznFY9pXeocpJzp6zXi4W/llY+pJv1igpdowhbXYrt/9S8osLZ0pOV4yT3vCRJX2rrKw0a8MfzNGxxb3eBYYyWXvdTXR5er6K3fAYYSGGbmftAilPX6bLttz0dkTpuYVe3lTJNq5ysnJq1CZuj+66Tze84CrTPI8eke318uLumJ1jHREaPGa+7CkJqqdocSdxsdfe1usREu48YAYPwPj26SZpt58qx6tl1YkZK9bKW2ayXXCMFO797jms9UnX1gt/qJyP6SOE/6bEZS1s5Opa9311T/Pajd79Xa1PhWmVtWKj89+26pRW6f9IAe/95jyXrd6U9ZU9IpQt1WaM5PfZ3Yq9T1dpUuFdDKicrM7J+dh35nBO+Ou44S4Vz/EWEje47dleg6HFnmT5xiib089Z1ju+og8Zxp5hju6Vqs37cOEzlRYqtO3SUyovcD+1+84sNjrjPL0fsusX+rbF1/JZn8fv7PZwuVPZ/D1S8oJf6j9ddeXWR34ldXpTf35CQsTwP19/pu95x9nEQnuOnfodK1ksPzx8lGfPy/Vvd2z/g+kvx6saOBi0lPoZ818kWc40OsM1iziVHkmu0v4Dnic+28N5LbD71vNvMPo9iuu/Fit1u8c+TyPY392GrXK2FT/1EPwxJLbsfa0VSdvsaHOgeEOS5Ra28hynOs4gxr+adWrVCunnBSDWti6ZfiXmGc8TcM2LXTfbztDnYhzvthVnWpnzOGz+xx1hUzLUx6bEdO78DFS/o3fNjz2uzXrxjO7aez3UqJbEfiaLncfBzU3Jtj5Nan9i/0X+bxa63w3MdMq7DLVWbtVJXe55NzeW5teZ6bIk+H/heF1M141daf0OuFPcdMbm456/n3PQ/dy2x1w7r/D0UM90j0PXMEk1HEFs2+L5FunNEX8+08O6Vvnn5xj2yTDe5huj1r5enGc/M1gjXrq992WcgkNvmavmNrhts+G097u427DFTK0omKuuDX6rkw21mYVRhi/bd06hD5dm6Lm4f4Vv1q/U3KVetve+gsxEARLc2a/FnWviP0s6HztbUeE2VAwQAYUo1kAPJFSyv26iJd7fmMain4TgD0lU0b6sRhLRffGOCFmgV58NT7aaJ+venzNL0F/fF3P7Y6Rd8RA9jB8PU7tccV24/I9AY93rY7dnBoJP68I32FywAuGx5vSaf1V9LJ/fRKrPQ5daH1+umnBb96T/+RUtfN0vR1dEFGN3aqsUhVesLjZzdkiAXoDX0OVJQNEb5GfLpvoz4rtbC6XZLWYJ/wXCcAWnKHpE6ZuTLaPc3tIFrFmrWiD5S3cYeGfyTZiqrv6SYXMtOyhPA6bbcijQeqbJHYW6pORjTyvDA5+287E5y68M3KVct+tPTBP+6vTnNmjxIqv594uCfrlmowhxJdZUE/7opAoDo5k7VdQ/1VzijUQuXf2kWRvx3uEX6/jgt9bbQhq8yTbO7W7Zrt5c0cvWC32r9+p/oh/qTHmtlF4ieh+MMSF92LqyYPHchLbphmPoorA8/SM8X4o5hDzr1bz+Udj/Wg1uc++SnlazW5aUjlekaTA891NBRuqsgpAMVsd2W25yd6zaaq9SWdbFmF4T8P4h0VzN+pfXr1+umnFptnEgrsK5u7AXjlK8Wvf+XOK3/Clu0r6RJ4T+el6Trr3XfObRpYg++73R/dAFGepjTrLoSae24DN1rltnGXrBOP7uwj6QWvbV1khYeNWv0cO5cGDF5c4A2wnEG9Bi+OQB9uscBJ8M3h5hffmb0GO78eW2S6y4w/xyApDxAZ4i++0rVbxar9BOzhmXZ8npNVpZy5p5qFiENEQAEAAAAAAAA0hhdgAEAAAAAAIA01q0DgLW1tbT+AwAAAAAAABLo1gFAAAAAAAAAAIkRAAQAAAAAAADSGAFAAAAAAAAAII2lRQDwRPE+HVtcp2OL9+n4uWYpAAAAAAAA0HOlRQCw15ZhOm1xjk59U/pqNkFAAAAAAAAAwJEWAUBHry1bdIpCOvE9swQAAAAAAADomdIqAOg4MWCWOQkAAAAAAADokdIyAAgAAAAAAADAQgAQAAAAAAAASGNpFgCsVq8mcxoAAAAAAADQc6VZAHCVeh2Wjl8xWd+YRQAAAAAAAEAPlGYBQOlbz+botJWHdHxxnY4t3kogEAAAAAAAAD1a2gUAv5lWp2P/LJ2yOEenLb4u/f5AAAAAAAAAIAVpFh9bpm/ypN4fbVMvswgAAAAAAADogdIsAAgAAAAAAADAjQAgAAAAAAAAkMYIAAIAAAAAAABpjAAgAAAAAAAAkMbSKgB4orhYXyusb72zyiwCAAAAAAAAeqS0CACeKN6nY4vr9OUVIZ3y8jD1/sSsAQAAAAAAAPRMaREA7LVlmE5bnKPTFufolL1mKQAAAAAAANBzpUUAEAAAAAAAAIA/AoAAAAAAAABAGuuVnZ19wpxo+u53v2tO8jV9+nRzUozzB/9AknTfzxaaRQAAAAAAAADaWJsHAFevWW1O9vjl/1kmEQAEAAAAAAAAOkRKAcD//d//NYs8SktL9evf/Nqc7PEfyx6XJN31k/lmEQAAAAAAAIA2Rg5AAAAAAAAAII2lEAC8VStKtqiiZIsqLp9pFroc1++e/VjvLTxuFgAAAAAAAADoYCkEAJ9RaXmxisrXq/r7ExMEAXvrR6+FFLr8U237V7MMAAAAAAAAQEdKIQDoWK0XP2iRQv+gsWaR479CeuCt7yr/psP63bVmIQAAAAAAAICO0ooAoK3vmfqBOc1l5dJM/SH8v7rqX7/QbLMQAAAAAAAAQIdofQAwKasrsEKfawpdgQEAAAAAAIBO0Y4BQEn/dZqqJeUP/btZAgAAAAAAAKADtCoA+Ptwgzkpju9oT62ks76mGzAAAAAAAADQCVoVANTRz/U35WncBWPMkhj//dl3pdDXCfMFAgAAAAAAAGgfrQwA/lwl5cV6JfRTVZRsUXmAQCAAAAAAAACAjte6AGDfX6i8ZIsu/bhYReXFKvlwm1kDAAAAAAAAQBfQqgDg2O9fpDNUo7c/MUti/eDs/5XCp+i/zQIAAAAAAAAA7a5VAcDg/q7LciUdPkUrzSIAAAAAAAAA7a59A4D/ekz5+q7+8P99xywBAAAAAAAA0AHaMQB4XL+7NizV9tWPXjPLAAAAAAAAAHSEdgsAzl7YpKtCtP4DAAAAAAAAOlMrAoAzdfOFfaS/vK0nzSLHv4Z1/+X/q+qNZ9H6DwAAAAAAAOhEKQQAb9WKki2qKJmo/KO79X/fWm1WsFldf8NvfU9j/sssAwAAAAAAANCRUggAPqPS8mIVlReraOvP9XuzOKK3fjTtPF28tLdZAAAAAAAAAKCD9crOzj5hTjR997vfNSf5mj59ulavidcy0PLL/7NMknTfzxaaRQAAAAAAAADaWJsHAJM5f/APJAKAAAAAAAAAQIcIFAAEAAAAAAAA0D2lkAMQAAAAAAAAQHdDABAAAAAAAABIYwQAAQAAAAAAgDRGABAAAAAAAABIYwQAAQAAAAAAgDRGABAAAAAAAABIYwQAAQAAAAAAgDRGABAAAAAAAABIYwQAAQAAAAAAgDRGABAAAAAAAABIYwQAAQAAAAAAgDRGABAAAAAAAABIYwQAAQAAAAAAgDRGABAAAAAAAABIYwQAAQAAAAAAgDRGABAAAAAAAABIYwQAAQAAAAAAgDRGABAAAAAAAABIYwQAAQAAAAAAgDRGABAAAAAAAABIYwQAAQAAAAAAgDRGABAAAAAAAABIYwQAAQAAAAAAgDRGABAAAAAAAABIYwQAAQAAAAAAgDRGABAAAAAAAABIYwQAAQAAAAAAgDRGABAAAAAAAABIYwQAAQAAAAAAgDRGABAAAAAAAABIYwQAAQAAAAAAgDRGABAAAAAAAABIYwQAAQAAAAAAgDRGABAAAAAAAABIYwQAAQAAAAAAgDT2/wNwnR3UvqMEggAAAABJRU5ErkJggg==;" vertex="1" parent="1">
          <mxGeometry x="-467" y="494.5999755859375" width="1280" height="513" as="geometry" />
        </mxCell>
        <mxCell id="AUIWZhhDlwIIDF9ezmAe-3" value="" style="edgeStyle=segmentEdgeStyle;endArrow=classic;html=1;curved=0;rounded=0;endSize=8;startSize=8;strokeColor=#ff0000;" edge="1" parent="1">
          <mxGeometry width="50" height="50" relative="1" as="geometry">
            <mxPoint x="605" y="558" as="sourcePoint" />
            <mxPoint x="-151" y="544" as="targetPoint" />
            <Array as="points">
              <mxPoint x="283" y="558" />
              <mxPoint x="-151" y="558" />
            </Array>
          </mxGeometry>
        </mxCell>
        <mxCell id="AUIWZhhDlwIIDF9ezmAe-4" value="URL (API Endpoint) to be posted to" style="text;html=1;align=center;verticalAlign=middle;whiteSpace=wrap;rounded=0;fontSize=18;" vertex="1" parent="1">
          <mxGeometry x="567" y="524" width="193" height="57" as="geometry" />
        </mxCell>
        <mxCell id="AUIWZhhDlwIIDF9ezmAe-6" value="" style="edgeStyle=segmentEdgeStyle;endArrow=classic;html=1;curved=0;rounded=0;endSize=8;startSize=8;strokeColor=#ff0000;" edge="1" parent="1">
          <mxGeometry width="50" height="50" relative="1" as="geometry">
            <mxPoint x="345" y="507" as="sourcePoint" />
            <mxPoint x="94" y="517" as="targetPoint" />
            <Array as="points">
              <mxPoint x="94" y="503" />
            </Array>
          </mxGeometry>
        </mxCell>
        <mxCell id="AUIWZhhDlwIIDF9ezmAe-7" value="Data to be posted" style="text;html=1;align=center;verticalAlign=middle;whiteSpace=wrap;rounded=0;fontSize=18;" vertex="1" parent="1">
          <mxGeometry x="280" y="498" width="157" height="57" as="geometry" />
        </mxCell>
        <mxCell id="AUIWZhhDlwIIDF9ezmAe-8" value="" style="labelPosition=right;align=left;strokeWidth=1;shape=mxgraph.mockup.markup.curlyBrace;html=1;shadow=0;dashed=0;strokeColor=#FF0000;direction=north;flipH=1;fillColor=#FF0000;" vertex="1" parent="1">
          <mxGeometry x="459" y="563" width="20" height="202" as="geometry" />
        </mxCell>
        <mxCell id="AUIWZhhDlwIIDF9ezmAe-9" value="Logic for what happens if the post request was successful" style="text;html=1;align=center;verticalAlign=middle;whiteSpace=wrap;rounded=0;fontSize=18;" vertex="1" parent="1">
          <mxGeometry x="482" y="636" width="212" height="57" as="geometry" />
        </mxCell>
        <mxCell id="AUIWZhhDlwIIDF9ezmAe-10" value="" style="labelPosition=right;align=left;strokeWidth=1;shape=mxgraph.mockup.markup.curlyBrace;html=1;shadow=0;dashed=0;strokeColor=#FF0000;direction=north;flipH=1;fillColor=#FF0000;" vertex="1" parent="1">
          <mxGeometry x="715" y="786" width="20" height="202" as="geometry" />
        </mxCell>
        <mxCell id="AUIWZhhDlwIIDF9ezmAe-11" value="Logic if an error was encoun-tered during the request" style="text;html=1;align=center;verticalAlign=middle;whiteSpace=wrap;rounded=0;fontSize=18;" vertex="1" parent="1">
          <mxGeometry x="730" y="774" width="74" height="225" as="geometry" />
        </mxCell>
      </root>
    </mxGraphModel>
  </diagram>
</mxfile>
